<svg width="22" height="18" viewBox="0 0 22 18" fill="none" xmlns="http://www.w3.org/2000/svg">
<g id="api-management 1" clip-path="url(#clip0_6457_1222)">
<path id="Vector" d="M5.33203 11.6882L7.19552 6.83594H7.88722L9.87305 11.6882H9.14157L8.57568 10.2184H6.54661L6.01379 11.6882H5.33203ZM6.73208 9.69569H8.37703L7.87057 8.35184C7.71609 7.94432 7.60139 7.60891 7.52645 7.34563C7.46347 7.66085 7.37603 7.97067 7.2649 8.2723L6.73208 9.69569ZM10.386 11.6882V6.83594H12.2164C12.5385 6.83594 12.7845 6.85136 12.9546 6.88219C13.1929 6.92197 13.3926 6.99755 13.5535 7.10894C13.7145 7.22034 13.8442 7.37647 13.9426 7.57735C14.042 7.78369 14.0924 8.01021 14.0898 8.23923C14.0898 8.6518 13.9585 9.00096 13.696 9.28672C13.4334 9.57248 12.959 9.71536 12.2728 9.71536H11.0282V11.688H10.386V11.6882ZM11.0282 9.14298H12.2819C12.6968 9.14298 12.9913 9.06574 13.1655 8.91126C13.3398 8.75678 13.4272 8.53947 13.4277 8.25933C13.4277 8.05643 13.3764 7.88264 13.2738 7.73796C13.1769 7.59749 13.0332 7.49605 12.8683 7.45177C12.7602 7.42295 12.5605 7.40854 12.2691 7.40854H11.0282V9.14298ZM15.0165 11.6882V6.83594H15.6587V11.6882H15.0165Z" fill="#469BF5"/>
<path id="Vector_2" d="M16.082 16.089H10.9522C10.801 16.0861 10.657 16.024 10.5511 15.916C10.4451 15.808 10.3858 15.6628 10.3858 15.5116C10.3858 15.3603 10.4451 15.2151 10.5511 15.1071C10.657 14.9991 10.801 14.937 10.9522 14.9341H16.082C18.6562 14.9341 20.751 12.8398 20.751 10.2651C20.751 7.91441 18.9948 5.92296 16.6657 5.63288L16.255 5.58165L16.1717 5.17592C15.6934 2.84576 13.6166 1.15541 11.2337 1.15541C8.45388 1.15541 6.19245 3.41684 6.19245 6.19661C6.19245 6.25303 6.19375 6.31312 6.19634 6.38597L6.2199 7.04935L5.55868 6.98061C5.42001 6.96624 5.28069 6.95903 5.14128 6.959C2.94275 6.959 1.15406 8.74769 1.15406 10.9462C1.15406 13.1447 2.94275 14.9334 5.14128 14.9334H6.53052C6.68174 14.9364 6.82577 14.9985 6.93168 15.1065C7.03759 15.2144 7.09692 15.3597 7.09692 15.5109C7.09692 15.6622 7.03759 15.8074 6.93168 15.9153C6.82577 16.0233 6.68174 16.0854 6.53052 16.0884H5.14128C2.30596 16.089 0 13.7822 0 10.9469C0 8.14246 2.25667 5.8553 5.04942 5.80559C5.12161 4.66651 5.507 3.56951 6.16309 2.63557C6.81918 1.70163 7.72047 0.967033 8.76755 0.512812C9.81463 0.058591 10.9668 -0.09761 12.097 0.0614371C13.2273 0.220484 14.2916 0.688599 15.1727 1.41415C16.1567 2.22642 16.8671 3.32159 17.2078 4.55123C19.9123 5.08082 21.9051 7.46934 21.9051 10.2655C21.9051 11.81 21.2916 13.2911 20.1996 14.3832C19.1076 15.4753 17.6264 16.0889 16.082 16.089Z" fill="#469BF5"/>
<path id="Vector_3" d="M12.271 18.0004C12.1266 18.0007 11.9873 17.9467 11.8808 17.8491L9.36133 15.5379L11.7464 13.0539C11.8534 12.9474 11.9977 12.8871 12.1486 12.8858C12.2995 12.8844 12.4449 12.9422 12.5538 13.0467C12.6626 13.1512 12.7262 13.2941 12.731 13.4449C12.7358 13.5957 12.6814 13.7424 12.5795 13.8536L11.013 15.4854L12.6614 16.9974C12.747 17.0761 12.807 17.1788 12.8333 17.2921C12.8596 17.4053 12.8511 17.5239 12.809 17.6323C12.7668 17.7407 12.6928 17.8338 12.5969 17.8995C12.5009 17.9652 12.3873 18.0003 12.271 18.0004Z" fill="#469BF5"/>
</g>
<defs>
<clipPath id="clip0_6457_1222">
<rect width="21.9023" height="18" fill="white"/>
</clipPath>
</defs>
</svg>
