<svg width="16" height="16" viewBox="0 0 16 16" fill="none" xmlns="http://www.w3.org/2000/svg">
<g id="Link">
<path id="Icon (Stroke)" fill-rule="evenodd" clip-rule="evenodd" d="M0 8.00052C0 6.064 1.56986 4.49414 3.50638 4.49414H5.00426C5.28627 4.49414 5.51489 4.72276 5.51489 5.00478C5.51489 5.2868 5.28627 5.51542 5.00426 5.51542H3.50638C2.1339 5.51542 1.02128 6.62804 1.02128 8.00052C1.02128 9.37301 2.1339 10.4856 3.50638 10.4856H5.00426C5.28627 10.4856 5.51489 10.7143 5.51489 10.9963C5.51489 11.2783 5.28627 11.5069 5.00426 11.5069H3.50638C1.56986 11.5069 0 9.93705 0 8.00052ZM10.4851 5.00478C10.4851 4.72276 10.7137 4.49414 10.9957 4.49414H12.4936C14.4301 4.49414 16 6.064 16 8.00052C16 9.93705 14.4301 11.5069 12.4936 11.5069H10.9957C10.7137 11.5069 10.4851 11.2783 10.4851 10.9963C10.4851 10.7143 10.7137 10.4856 10.9957 10.4856H12.4936C13.8661 10.4856 14.9787 9.37301 14.9787 8.00052C14.9787 6.62804 13.8661 5.51542 12.4936 5.51542H10.9957C10.7137 5.51542 10.4851 5.2868 10.4851 5.00478ZM4.49362 8.00052C4.49362 7.71851 4.72224 7.48989 5.00426 7.48989H10.9957C11.2778 7.48989 11.5064 7.71851 11.5064 8.00052C11.5064 8.28254 11.2778 8.51116 10.9957 8.51116H5.00426C4.72224 8.51116 4.49362 8.28254 4.49362 8.00052Z" fill="#727272"/>
</g>
</svg>
