<svg width="16" height="16" viewBox="0 0 16 16" fill="none" xmlns="http://www.w3.org/2000/svg">
<g id="Icons">
<g id="Group">
<path id="Vector" d="M13.49 7.77589C13.5348 8.13918 13.4333 8.50534 13.2081 8.7939C12.9828 9.08235 12.6521 9.26964 12.2888 9.31431C11.9255 9.35908 11.5593 9.25768 11.2708 9.0324C10.9823 8.8071 10.7951 8.47642 10.7503 8.11312C10.7056 7.74982 10.807 7.38367 11.0323 7.09511C11.2576 6.80666 11.5882 6.61937 11.9515 6.5747C12.3149 6.52993 12.6811 6.63133 12.9695 6.85661C13.2581 7.08191 13.4453 7.41259 13.49 7.77589Z" fill="#5BABFF"/>
<path id="Vector_2" d="M11.4284 4.24804C11.6476 4.46618 11.7712 4.76251 11.7719 5.07175C11.7726 5.38098 11.6504 5.67792 11.4323 5.89708C11.214 6.11624 10.9178 6.23983 10.6085 6.24054C10.2993 6.24126 10.0024 6.1191 9.78316 5.90095C9.564 5.68281 9.44041 5.38648 9.4397 5.07724C9.43898 4.76793 9.56114 4.47108 9.77929 4.25191C9.99743 4.03265 10.2938 3.90916 10.603 3.90845C10.9123 3.90763 11.2092 4.02979 11.4284 4.24804H11.4284Z" fill="#5BABFF"/>
<path id="Vector_3" d="M8.3468 3.02066C8.60296 3.07391 8.82754 3.22684 8.97105 3.44569C9.11446 3.66444 9.16517 3.93135 9.11191 4.18762C9.05865 4.44378 8.90573 4.66836 8.68688 4.81187C8.46802 4.95528 8.20122 5.00599 7.94495 4.95273C7.68878 4.89947 7.4642 4.74655 7.3207 4.5277C7.17728 4.30884 7.12658 4.04204 7.17984 3.78577C7.23309 3.5296 7.38602 3.30502 7.60487 3.16152C7.82362 3.0181 8.09053 2.9674 8.3468 3.02066Z" fill="#5BABFF"/>
<path id="Vector_4" d="M5.57894 3.46118C5.79053 3.35784 6.03464 3.34292 6.25728 3.41958C6.48002 3.49615 6.66321 3.65817 6.76644 3.86986C6.86968 4.08146 6.88471 4.32546 6.80804 4.5482C6.73138 4.77094 6.56946 4.95403 6.35776 5.05737C6.14617 5.16061 5.90206 5.17563 5.67942 5.09897C5.45668 5.0223 5.27349 4.86038 5.17026 4.64869C5.06702 4.43699 5.05199 4.19299 5.12866 3.97024C5.20532 3.7476 5.36724 3.56442 5.57894 3.46118Z" fill="#5BABFF"/>
<path id="Vector_5" d="M3.49884 5.13623C3.5981 4.95192 3.76655 4.81464 3.96713 4.75453C4.16769 4.69442 4.38389 4.71651 4.56819 4.81576C4.7525 4.91512 4.88978 5.08357 4.94989 5.28413C5.00989 5.48468 4.98791 5.70089 4.88856 5.88519C4.7893 6.06939 4.62085 6.20667 4.42027 6.26678C4.21971 6.32689 4.00351 6.30481 3.8192 6.20555C3.6349 6.10619 3.49762 5.93774 3.43751 5.73719C3.3774 5.53673 3.39948 5.32053 3.49884 5.13623Z" fill="#5BABFF"/>
<path id="Vector_6" d="M2.54983 7.35255C2.53092 7.17029 2.5852 6.98813 2.70071 6.84596C2.81622 6.70366 2.98346 6.6132 3.16562 6.59439C3.34788 6.57548 3.53015 6.62976 3.67232 6.74527C3.8145 6.86077 3.90498 7.02802 3.92389 7.21018C3.9427 7.39244 3.88842 7.5746 3.77291 7.71677C3.6575 7.85896 3.49016 7.94953 3.308 7.96834C3.12584 7.98725 2.94358 7.93297 2.8014 7.81746C2.65921 7.70195 2.56875 7.53471 2.54983 7.35255Z" fill="#5BABFF"/>
<path id="Vector_7" d="M2.67575 9.69538C2.55881 9.57189 2.49563 9.407 2.50023 9.2369C2.50483 9.06691 2.5768 8.90561 2.70028 8.78866C2.82376 8.67172 2.98866 8.60855 3.15875 8.61315C3.32875 8.61775 3.48994 8.68971 3.60699 8.8132C3.72394 8.93668 3.78711 9.10157 3.78251 9.27156C3.77791 9.44166 3.70594 9.60286 3.58246 9.71991C3.45898 9.83685 3.29408 9.90002 3.12409 9.89542C2.954 9.89082 2.7928 9.81886 2.67575 9.69538Z" fill="#5BABFF"/>
<path id="Vector_8" d="M3.68585 11.508C3.53088 11.4827 3.39237 11.3968 3.30078 11.2692C3.20908 11.1418 3.17187 10.9831 3.19723 10.8282C3.22258 10.6732 3.30844 10.5347 3.43591 10.443C3.56338 10.3514 3.72214 10.3141 3.87709 10.3394C4.03195 10.3648 4.17057 10.4507 4.26216 10.5782C4.35385 10.7057 4.39106 10.8643 4.36571 11.0193C4.34036 11.1742 4.25449 11.3128 4.12702 11.4045C3.99945 11.4961 3.84079 11.5334 3.68585 11.508Z" fill="#5BABFF"/>
<path id="Vector_9" d="M5.18506 12.6361C5.05749 12.7028 4.90874 12.7162 4.77136 12.6733C4.63397 12.6302 4.51928 12.5345 4.45252 12.407C4.38577 12.2794 4.37238 12.1307 4.41541 11.9933C4.45835 11.8559 4.55413 11.7412 4.6816 11.6744C4.80917 11.6077 4.95799 11.5943 5.0953 11.6373C5.23268 11.6803 5.34738 11.7761 5.41414 11.9036C5.48089 12.0311 5.49428 12.1799 5.45124 12.3173C5.40831 12.4546 5.31253 12.5693 5.18506 12.6361Z" fill="#5BABFF"/>
<path id="Vector_10" d="M6.57096 13.0219C6.51218 13.1239 6.41528 13.1984 6.30161 13.229C6.18784 13.2596 6.0667 13.2438 5.96458 13.185C5.86257 13.1262 5.78805 13.0293 5.75748 12.9155C5.72682 12.8019 5.74266 12.6806 5.80144 12.5786C5.86022 12.4766 5.95712 12.4021 6.0709 12.3714C6.18457 12.3409 6.3058 12.3567 6.40782 12.4155C6.50993 12.4743 6.58445 12.5712 6.61502 12.6848C6.64558 12.7986 6.62974 12.9198 6.57096 13.0219Z" fill="#5BABFF"/>
<path id="Vector_11" d="M7.58384 13.1725C7.54469 13.2406 7.48009 13.2903 7.40424 13.3106C7.32839 13.3311 7.24764 13.3204 7.17956 13.2813C7.03788 13.1997 6.98923 13.0187 7.0708 12.877C7.11005 12.809 7.17466 12.7593 7.2504 12.7389C7.32625 12.7186 7.407 12.7291 7.47508 12.7682C7.54306 12.8075 7.59274 12.8721 7.61318 12.9478C7.63363 13.0237 7.62299 13.1045 7.58384 13.1725Z" fill="#5BABFF"/>
<path id="Vector_12" d="M8.5957 13.0581C8.56953 13.1034 8.5265 13.1365 8.4759 13.1501C8.4254 13.1638 8.37153 13.1568 8.32614 13.1306C8.23169 13.0762 8.19929 12.9556 8.25367 12.8611C8.30805 12.7667 8.42867 12.7342 8.52313 12.7886C8.56851 12.8147 8.60163 12.8578 8.61523 12.9084C8.62882 12.9589 8.62177 13.0127 8.5957 13.0581Z" fill="#5BABFF"/>
</g>
</g>
</svg>
