<svg width="15" height="17" viewBox="0 0 15 17" fill="none" xmlns="http://www.w3.org/2000/svg">
<g id="vuesax/linear/filter-square">
<path id="Subtract" fill-rule="evenodd" clip-rule="evenodd" d="M14.4047 6.22622C14.3539 6.28778 14.3018 6.34551 14.2487 6.3986C14.2415 6.40585 14.234 6.41287 14.2263 6.41966L10.8897 9.36928L10.8775 9.37967C10.7228 9.50784 10.5708 9.72335 10.4569 9.99315C10.3441 10.2606 10.2844 10.545 10.2844 10.7831V14.1198C10.2844 14.452 10.1788 14.801 10.0266 15.0952C9.87599 15.3865 9.64953 15.682 9.35552 15.865L9.35404 15.8659L8.27568 16.5449L8.27227 16.5471L8.27226 16.547C6.94477 17.368 5.10687 16.4566 5.10687 14.8005V10.6897C5.10687 10.5006 5.0515 10.2557 4.94948 10.0021C4.85102 9.75736 4.72307 9.53917 4.60427 9.39226L1.67421 6.3031C1.42579 6.06037 1.2224 5.73445 1.08079 5.41536C0.938973 5.09581 0.835938 4.73076 0.835938 4.4034V2.62829C0.835938 1.43457 1.73743 0.5 2.88415 0.5H8.02573C8.01043 0.66461 8.0026 0.831391 8.0026 1C8.0026 1.16861 8.01043 1.33539 8.02573 1.5H2.88415C2.3225 1.5 1.83594 1.95349 1.83594 2.62829V4.4034C1.83594 4.54318 1.88639 4.76539 1.99482 5.00973C2.10186 5.25092 2.24247 5.46177 2.37726 5.59192C2.38253 5.59701 2.38769 5.60221 2.39274 5.60753L5.34235 8.71731C5.35011 8.72549 5.35759 8.73393 5.36478 8.74261C5.56354 8.98278 5.74484 9.29983 5.87722 9.62887C6.00877 9.95586 6.10687 10.3316 6.10687 10.6897V14.8005C6.10687 15.6262 7.04369 16.1294 7.74472 15.6975L8.82395 15.018L8.82667 15.0163L8.82668 15.0163C8.919 14.959 9.03905 14.8279 9.13841 14.6358C9.23648 14.4462 9.28439 14.2547 9.28439 14.1198V10.7831C9.28439 10.3939 9.37815 9.97763 9.53558 9.60445C9.69092 9.23623 9.92371 8.8737 10.2329 8.61516L12.8399 6.31057C13.0032 6.32563 13.1687 6.33333 13.3359 6.33333C13.702 6.33333 14.0594 6.29646 14.4047 6.22622Z" fill="#1C3CF1"/>
</g>
</svg>
