<svg width="10" height="12" viewBox="0 0 10 12" fill="none" xmlns="http://www.w3.org/2000/svg">
<g id="Group">
<g id="Group_2">
<path id="Vector" d="M5.1993 5.84008L9.88833 10.5292C9.95885 10.6009 9.99818 10.6976 9.99776 10.7981C9.99734 10.8987 9.9572 10.995 9.88608 11.0661C9.81497 11.1372 9.71864 11.1773 9.61808 11.1777C9.51752 11.1781 9.42088 11.1388 9.3492 11.0682L4.42624 6.14528C4.34238 6.06142 4.30579 5.94846 4.31633 5.83906C4.31115 5.78334 4.31832 5.72717 4.33734 5.67454C4.35636 5.62192 4.38676 5.57414 4.42637 5.53461L9.34946 0.611658C9.42095 0.540165 9.51791 0.5 9.61902 0.5C9.72013 0.5 9.81709 0.540165 9.88859 0.611658C9.96008 0.683151 10.0002 0.780117 10.0002 0.881223C10.0002 0.98233 9.96008 1.0793 9.88859 1.15079L5.1993 5.84008Z" fill="#A2A2A2"/>
<path id="Vector_2" d="M0.884476 5.84008L5.57389 10.5292C5.64441 10.6009 5.68374 10.6976 5.68332 10.7981C5.6829 10.8987 5.64276 10.995 5.57164 11.0661C5.50052 11.1372 5.4042 11.1773 5.30364 11.1777C5.20308 11.1781 5.10643 11.1388 5.03476 11.0682L0.111802 6.14528C0.0279398 6.06142 -0.00865459 5.94846 0.00189209 5.83906C-0.00328493 5.78334 0.00389194 5.72717 0.0229115 5.67455C0.0419316 5.62192 0.0723262 5.57414 0.111928 5.53461L5.03476 0.611658C5.10625 0.540165 5.20322 0.5 5.30432 0.5C5.40543 0.5 5.5024 0.540165 5.57389 0.611658C5.64538 0.683151 5.68555 0.780117 5.68555 0.881223C5.68555 0.98233 5.64538 1.0793 5.57389 1.15079L0.884476 5.84008Z" fill="#A2A2A2"/>
</g>
</g>
</svg>
