<svg width="12" height="12" viewBox="0 0 12 12" fill="none" xmlns="http://www.w3.org/2000/svg">
<g id="Gass">
<g id="Group 1000006265">
<path id="Vector (Stroke)" fill-rule="evenodd" clip-rule="evenodd" d="M11.6763 0C11.8465 0 11.9846 0.138033 11.9846 0.308304V8.84932C11.9846 8.8538 11.9845 8.85827 11.9843 8.86274C11.9641 9.32489 11.706 9.74379 11.3019 9.96935C10.8979 10.1949 10.4058 10.1949 10.0018 9.96935C9.59766 9.7438 9.33954 9.32491 9.3194 8.86274C9.3192 8.85827 9.3191 8.8538 9.3191 8.84932V5.75965C9.3191 5.56944 9.24358 5.38709 9.10907 5.25258L9.10902 5.25253C8.97464 5.11809 8.79225 5.04255 8.60201 5.04255C8.43173 5.04255 8.2937 4.90451 8.2937 4.73424C8.2937 4.56397 8.43173 4.42594 8.60201 4.42594C8.95567 4.42594 9.29496 4.56636 9.54508 4.81657M9.54513 4.81662C9.79525 5.06677 9.93571 5.40594 9.93571 5.75965V8.84201C9.94854 9.08819 10.0869 9.31069 10.3023 9.43092L10.3023 9.43094C10.5195 9.55219 10.7841 9.55219 11.0013 9.43094L11.0014 9.43092C11.2168 9.31068 11.3551 9.08817 11.368 8.84201V0.308304C11.368 0.138033 11.506 0 11.6763 0" fill="#727272"/>
<path id="Vector (Stroke)_2" fill-rule="evenodd" clip-rule="evenodd" d="M2.54041 0.285525L2.54127 0.285522L6.98353 0.285524C7.42681 0.286755 7.8515 0.463429 8.1649 0.776827C8.47828 1.09022 8.65496 1.5149 8.65619 1.95818L8.6562 1.95904L8.65619 10.1879H9.20527C9.37555 10.1879 9.51358 10.3259 9.51358 10.4962V11.6915C9.51358 11.8618 9.37555 11.9999 9.20527 11.9999H0.322465C0.152193 11.9999 0.0141602 11.8618 0.0141602 11.6915V10.4962C0.0141602 10.3259 0.152193 10.1879 0.322465 10.1879H0.867682V1.95818C0.868913 1.5149 1.04559 1.09022 1.35899 0.776823C1.67239 0.46342 2.09716 0.286762 2.54041 0.285525ZM2.54173 0.902133C2.26157 0.903022 1.9931 1.01473 1.79499 1.21283C1.59687 1.41096 1.48517 1.67937 1.48429 1.95951V10.4962C1.48429 10.6665 1.34626 10.8045 1.17599 10.8045H0.630769V11.3832H8.89697V10.8045H8.34789C8.17762 10.8045 8.03959 10.6665 8.03959 10.4962V1.95931C8.03865 1.67923 7.92696 1.41091 7.72888 1.21283C7.53077 1.01471 7.26236 0.903016 6.98222 0.902133H2.54173Z" fill="#727272"/>
<path id="Vector (Stroke)_3" fill-rule="evenodd" clip-rule="evenodd" d="M2.88598 2.15323C2.86745 2.15323 2.85245 2.16823 2.85245 2.18676V4.37633C2.85263 4.37678 2.85285 4.37729 2.8531 4.37785C2.85606 4.38458 2.86166 4.39367 2.86973 4.40232C2.87774 4.41091 2.8849 4.41557 2.88886 4.41752C2.88909 4.41763 2.8893 4.41773 2.88949 4.41782H6.63414C6.65267 4.41782 6.66767 4.40282 6.66767 4.38429V2.19472C6.66748 2.19427 6.66727 2.19376 6.66702 2.19319C6.66406 2.18647 6.65845 2.17738 6.65038 2.16873C6.64237 2.16014 6.63522 2.15548 6.63126 2.15353C6.63102 2.15342 6.63081 2.15332 6.63062 2.15323H2.88598ZM2.23584 2.18676C2.23584 1.82769 2.5269 1.53662 2.88598 1.53662H6.63414C6.83376 1.53662 6.99612 1.63538 7.10132 1.74818C7.20372 1.85798 7.28428 2.01539 7.28428 2.18676V4.38429C7.28428 4.74336 6.99322 5.03443 6.63414 5.03443H2.88598C2.68636 5.03443 2.52399 4.93567 2.41879 4.82287C2.31639 4.71307 2.23584 4.55566 2.23584 4.38429V2.18676Z" fill="#727272"/>
<path id="Vector (Stroke)_4" fill-rule="evenodd" clip-rule="evenodd" d="M11.6349 1.59848C11.771 1.70078 11.7985 1.89405 11.6962 2.03017L11.0172 2.93363C10.9311 3.04656 10.9058 3.19415 10.9492 3.32893C10.9925 3.46361 11.0988 3.56857 11.2337 3.6102L11.7654 3.76813C11.9286 3.81662 12.0216 3.98824 11.9731 4.15147C11.9246 4.31469 11.753 4.4077 11.5898 4.35921L11.0544 4.20018C10.7259 4.0997 10.4674 3.84474 10.3622 3.51781C10.257 3.19101 10.3185 2.83379 10.526 2.56081L11.2032 1.65972C11.3055 1.5236 11.4988 1.49618 11.6349 1.59848Z" fill="#727272"/>
</g>
</g>
</svg>
