<svg width="16" height="16" viewBox="0 0 16 16" fill="none" xmlns="http://www.w3.org/2000/svg">
<g id="Icons">
<path id="Vector" d="M7.95445 2.00201C7.91606 2.00766 7.87897 2.01966 7.84478 2.03753L0.987843 5.44318C0.875966 5.49861 0.805504 5.61015 0.805504 5.73198C0.805504 5.85382 0.875966 5.96547 0.987843 6.0209L7.84478 9.42655C7.93998 9.47339 8.05267 9.47339 8.14785 9.42655L15.0048 6.0209C15.1167 5.96547 15.1871 5.85382 15.1871 5.73198C15.1871 5.61015 15.1167 5.49861 15.0048 5.44318L8.14785 2.03753C8.08847 2.00721 8.02117 1.99477 7.95445 2.00201ZM7.99621 2.69128L14.1215 5.73203L7.99621 8.77279L1.87095 5.73203L7.99621 2.69128ZM1.12374 7.83508C0.968813 7.83983 0.837805 7.94707 0.806659 8.09425C0.77551 8.24142 0.852741 8.38995 0.993198 8.4534L7.85014 11.6969C7.94253 11.7404 8.05033 11.7404 8.14272 11.6969L14.9997 8.4534C15.083 8.41788 15.1478 8.35103 15.1792 8.26822C15.2107 8.18541 15.2059 8.09367 15.166 8.01437C15.1261 7.93496 15.0547 7.87478 14.968 7.84763C14.8815 7.82048 14.7871 7.82885 14.707 7.87059L7.99636 11.0431L1.28576 7.87059C1.23559 7.84571 1.17997 7.8335 1.12374 7.83508ZM1.12374 10.1055C0.968813 10.1102 0.837805 10.2174 0.806659 10.3646C0.775513 10.5118 0.852741 10.6604 0.993198 10.7238L7.85014 13.9673C7.94253 14.0109 8.05033 14.0109 8.14272 13.9673L14.9997 10.7238C15.083 10.6884 15.1478 10.6215 15.1792 10.5386C15.2107 10.4558 15.2059 10.3642 15.166 10.2847C15.1261 10.2053 15.0547 10.1452 14.968 10.1181C14.8815 10.091 14.7871 10.0992 14.707 10.141L7.99636 13.3135L1.28576 10.141C1.23559 10.1162 1.17997 10.1039 1.12374 10.1055Z" fill="#727272" stroke="#727272" stroke-width="0.15"/>
</g>
</svg>
