<svg width="20" height="20" viewBox="0 0 20 20" fill="none" xmlns="http://www.w3.org/2000/svg">
<g id="Status Icons">
<rect width="20" height="20" rx="10" fill="#BDECD7"/>
<path id="Shape" d="M10.0002 16.6321C8.68849 16.6321 7.40626 16.2431 6.31563 15.5144C5.225 14.7856 4.37496 13.7499 3.873 12.538C3.37104 11.3262 3.2397 9.9927 3.4956 8.70622C3.7515 7.41973 4.38314 6.23802 5.31064 5.31052C6.23814 4.38301 7.41985 3.75137 8.70634 3.49548C9.99282 3.23958 11.3263 3.37092 12.5381 3.87288C13.75 4.37484 14.7858 5.22488 15.5145 6.31551C16.2432 7.40614 16.6322 8.68837 16.6322 10.0001C16.6302 11.7584 15.9309 13.4441 14.6875 14.6874C13.4442 15.9307 11.7585 16.6301 10.0002 16.6321ZM6.26944 9.30738C6.14474 9.30708 6.02284 9.34428 5.91955 9.41414C5.81627 9.48401 5.73637 9.58332 5.69025 9.69917C5.64412 9.81502 5.63389 9.94206 5.66089 10.0638C5.68789 10.1855 5.75087 10.2963 5.84165 10.3818L8.5539 12.9424C8.67303 13.0534 8.83095 13.1132 8.99372 13.109C9.15649 13.1048 9.31113 13.037 9.4244 12.92L14.1761 7.94566C14.2899 7.82627 14.3516 7.66656 14.3476 7.50168C14.3437 7.3368 14.2744 7.18024 14.155 7.06645C14.0356 6.95267 13.8759 6.89097 13.711 6.89493C13.5461 6.8989 13.3896 6.9682 13.2758 7.08759L8.95806 11.6105L6.69723 9.47651C6.58181 9.36782 6.42923 9.30732 6.27068 9.30738H6.26944Z" fill="#06C270"/>
</g>
</svg>
