<svg width="16" height="15" viewBox="0 0 16 15" fill="none" xmlns="http://www.w3.org/2000/svg">
<g id="Group">
<path id="Vector" d="M16 2.47347C15.4116 2.73765 14.7795 2.91615 14.115 2.99683C14.8007 2.58113 15.3136 1.92688 15.5582 1.15614C14.914 1.54383 14.209 1.81673 13.4738 1.96296C12.9794 1.42808 12.3245 1.07355 11.6109 0.954419C10.8973 0.835287 10.1648 0.958215 9.52717 1.30412C8.88955 1.65002 8.38247 2.19955 8.08467 2.86738C7.78686 3.53521 7.71499 4.28399 7.88021 4.99745C6.57496 4.93104 5.29807 4.58729 4.13242 3.9885C2.96677 3.38971 1.93841 2.54927 1.11407 1.52171C0.832203 2.01437 0.670131 2.58556 0.670131 3.19389C0.669817 3.74152 0.802912 4.28077 1.05761 4.76378C1.3123 5.24679 1.68073 5.65864 2.13019 5.96277C1.60893 5.94597 1.09918 5.80325 0.643354 5.54651V5.58935C0.643302 6.35743 0.905511 7.10187 1.38549 7.69636C1.86547 8.29084 2.53365 8.69876 3.27667 8.85089C2.79312 8.98349 2.28615 9.00302 1.79406 8.90801C2.0037 9.5689 2.41205 10.1468 2.96194 10.5609C3.51184 10.9749 4.17575 11.2044 4.86074 11.2171C3.69794 12.142 2.26188 12.6437 0.783581 12.6415C0.521717 12.6416 0.260073 12.6261 0 12.5951C1.50056 13.5727 3.24731 14.0915 5.03127 14.0895C11.0702 14.0895 14.3715 9.02154 14.3715 4.62617C14.3715 4.48337 14.368 4.33914 14.3617 4.19634C15.0038 3.7258 15.5581 3.14312 15.9986 2.47561L16 2.47347Z" fill="#B8B8B8"/>
</g>
</svg>
