<svg width="18" height="18" viewBox="0 0 18 18" fill="none" xmlns="http://www.w3.org/2000/svg">
<g id="Widget 2">
<g id="Group">
<path id="Vector" d="M6.75 1.125H2.8125C1.88212 1.125 1.125 1.88212 1.125 2.8125V6.75C1.125 7.68038 1.88212 8.4375 2.8125 8.4375H6.75C7.68038 8.4375 8.4375 7.68038 8.4375 6.75V2.8125C8.4375 1.88212 7.68038 1.125 6.75 1.125ZM7.3125 6.75C7.3125 7.05994 7.05994 7.3125 6.75 7.3125H2.8125C2.50256 7.3125 2.25 7.05994 2.25 6.75V2.8125C2.25 2.50256 2.50256 2.25 2.8125 2.25H6.75C7.05994 2.25 7.3125 2.50256 7.3125 2.8125V6.75ZM6.75 9.5625H2.8125C1.88212 9.5625 1.125 10.3196 1.125 11.25V15.1875C1.125 16.1179 1.88212 16.875 2.8125 16.875H6.75C7.68038 16.875 8.4375 16.1179 8.4375 15.1875V11.25C8.4375 10.3196 7.68038 9.5625 6.75 9.5625ZM7.3125 15.1875C7.3125 15.4974 7.05994 15.75 6.75 15.75H2.8125C2.50256 15.75 2.25 15.4974 2.25 15.1875V11.25C2.25 10.9401 2.50256 10.6875 2.8125 10.6875H6.75C7.05994 10.6875 7.3125 10.9401 7.3125 11.25V15.1875ZM15.1875 9.5625H11.25C10.3196 9.5625 9.5625 10.3196 9.5625 11.25V15.1875C9.5625 16.1179 10.3196 16.875 11.25 16.875H15.1875C16.1179 16.875 16.875 16.1179 16.875 15.1875V11.25C16.875 10.3196 16.1179 9.5625 15.1875 9.5625ZM15.75 15.1875C15.75 15.4974 15.4974 15.75 15.1875 15.75H11.25C10.9401 15.75 10.6875 15.4974 10.6875 15.1875V11.25C10.6875 10.9401 10.9401 10.6875 11.25 10.6875H15.1875C15.4974 10.6875 15.75 10.9401 15.75 11.25V15.1875ZM9.5625 4.5C9.5625 4.35082 9.62176 4.20774 9.72725 4.10225C9.83274 3.99676 9.97582 3.9375 10.125 3.9375H12.6562V1.6875C12.6562 1.53832 12.7155 1.39524 12.821 1.28975C12.9265 1.18426 13.0696 1.125 13.2188 1.125C13.3679 1.125 13.511 1.18426 13.6165 1.28975C13.722 1.39524 13.7812 1.53832 13.7812 1.6875V3.9375H16.3125C16.4617 3.9375 16.6048 3.99676 16.7102 4.10225C16.8157 4.20774 16.875 4.35082 16.875 4.5C16.875 4.64918 16.8157 4.79226 16.7102 4.89775C16.6048 5.00324 16.4617 5.0625 16.3125 5.0625H13.7812V7.875C13.7812 8.02418 13.722 8.16726 13.6165 8.27275C13.511 8.37824 13.3679 8.4375 13.2188 8.4375C13.0696 8.4375 12.9265 8.37824 12.821 8.27275C12.7155 8.16726 12.6562 8.02418 12.6562 7.875V5.0625H10.125C9.97582 5.0625 9.83274 5.00324 9.72725 4.89775C9.62176 4.79226 9.5625 4.64918 9.5625 4.5Z" fill="#469BF5"/>
</g>
</g>
</svg>
