<svg width="45" height="45" viewBox="0 0 45 45" fill="none" xmlns="http://www.w3.org/2000/svg">
<g id="Group">
<path id="Vector" d="M22.3785 44.9961C34.7378 44.9961 44.757 34.9234 44.757 22.498C44.757 10.0727 34.7378 0 22.3785 0C10.0192 0 0 10.0727 0 22.498C0 34.9234 10.0192 44.9961 22.3785 44.9961Z" fill="white"/>
<g id="Group_2">
<path id="Vector_2" d="M19.326 15.3712C19.326 15.3712 20.2668 15.8931 21.6876 16.6858L40.2446 8.9471C39.5732 8.05628 38.8394 7.21648 38.047 6.43555C37.9182 6.51011 37.8089 6.55328 37.8089 6.55328L18.4517 14.7354C18.6703 14.9591 18.9552 15.175 19.326 15.3673V15.3712Z" fill="url(#paint0_linear_7487_19938)"/>
<path id="Vector_3" d="M42.2159 12.0829L38.7964 13.4133C36.0601 14.4218 25.2905 18.6875 25.2905 18.6875C27.0509 19.6647 28.9519 20.7164 30.6265 21.6347C34.9086 23.9853 32.1996 29.1458 31.6336 30.1269C31.6258 30.1387 31.618 30.1544 31.6102 30.1661C31.5633 30.2446 31.536 30.2917 31.536 30.2917C31.536 30.2917 31.9381 26.4341 29.233 25.0096C26.5084 23.5851 20.2589 20.2416 17.6319 18.8327C16.3945 18.1695 15.4967 16.9648 15.3289 15.5677C15.204 14.5199 15.4655 13.3152 16.7146 12.2635C17.4445 11.5845 18.2252 11.2196 18.2252 11.2196L32.1879 5.45871C32.1879 5.45871 32.2777 5.42339 32.4065 5.35668L35.3106 4.14407C31.657 1.5344 27.1993 0 22.3785 0C10.0202 0 0 10.0737 0 22.498C0 26.4969 1.04222 30.2525 2.86514 33.5057L8.26752 31.1394L19.0215 26.6029C17.1674 25.5825 15.4538 24.6289 14.6419 24.1933C14.2359 23.9736 13.7284 23.6322 13.3225 23.4163C11.1444 22.2587 9.7157 18.9897 13.0219 15.1125C13.0219 15.1125 12.6784 18.7935 14.7238 20.0414C16.6756 21.2344 24.2444 25.1312 26.4888 26.3399C27.0666 26.65 27.5974 27.0463 28.019 27.5486C28.8934 28.5886 29.2252 29.8757 28.8582 31.2335C28.8426 31.3003 28.8192 31.367 28.7997 31.4298C28.788 31.4729 28.7724 31.5161 28.7567 31.5553C28.7333 31.622 28.7099 31.6848 28.6865 31.7476C28.6787 31.7672 28.6709 31.7869 28.6631 31.8065C27.8941 33.6784 25.8409 34.2396 25.8409 34.2396L25.591 34.322L12.5223 39.714L9.64153 40.9854C13.2561 43.5048 17.6436 44.9882 22.3785 44.9882C34.7368 44.9882 44.757 34.9145 44.757 22.4902C44.757 18.7307 43.8358 15.1871 42.212 12.0712L42.2159 12.0829Z" fill="url(#paint1_linear_7487_19938)"/>
<path id="Vector_4" d="M22.6361 28.585L8.29867 34.7069L4.66846 36.2491C5.33595 37.1164 6.06199 37.9327 6.84658 38.6901L7.34623 38.4389L26.1257 30.5668L22.6322 28.5811L22.6361 28.585Z" fill="url(#paint2_linear_7487_19938)"/>
</g>
<path id="Vector_5" opacity="0.1" d="M19.0176 26.6025L22.6361 28.5843L20.8249 29.3574L17.0386 27.4384L19.0176 26.6025Z" fill="#4D4D4D"/>
<path id="Vector_6" opacity="0.1" d="M25.8408 34.2513C25.8408 34.2513 28.8464 32.1126 26.1257 30.5703L24.4199 31.2845C24.4199 31.2845 27.2694 32.0537 25.8408 34.2513Z" fill="#4D4D4D"/>
<path id="Vector_7" opacity="0.1" d="M19.0176 26.6025L22.6361 28.5843L20.8249 29.3574L17.0386 27.4384L19.0176 26.6025Z" fill="#4D4D4D"/>
<path id="Vector_8" opacity="0.1" d="M25.8408 34.2513C25.8408 34.2513 28.8464 32.1126 26.1257 30.5703L24.4199 31.2845C24.4199 31.2845 27.2694 32.0537 25.8408 34.2513Z" fill="#4D4D4D"/>
<path id="Vector_9" opacity="0.3" d="M20.3097 13.9192L18.3971 14.7276C18.3971 14.7276 15.6295 12.2945 19.0099 10.9014C19.0099 10.9014 17.913 12.7733 20.3058 13.9192H20.3097Z" fill="#4D4D4D"/>
<path id="Vector_10" opacity="0.3" d="M25.2904 18.7109L21.6602 16.6938L23.405 15.9639L26.9728 18.0281L25.2904 18.7109Z" fill="#4D4D4D"/>
</g>
<defs>
<linearGradient id="paint0_linear_7487_19938" x1="18.4517" y1="11.5646" x2="40.2446" y2="11.5646" gradientUnits="userSpaceOnUse">
<stop stop-color="#469BF5"/>
<stop offset="0.09" stop-color="#3A81F3"/>
<stop offset="0.21" stop-color="#2F68F2"/>
<stop offset="0.34" stop-color="#2654F2"/>
<stop offset="0.49" stop-color="#2046F1"/>
<stop offset="0.67" stop-color="#1D3EF1"/>
<stop offset="1" stop-color="#1C3CF1"/>
</linearGradient>
<linearGradient id="paint1_linear_7487_19938" x1="0" y1="22.498" x2="44.7609" y2="22.498" gradientUnits="userSpaceOnUse">
<stop offset="0.08" stop-color="#469BF5"/>
<stop offset="0.7" stop-color="#2756F2"/>
<stop offset="1" stop-color="#1C3CF1"/>
</linearGradient>
<linearGradient id="paint2_linear_7487_19938" x1="4.67236" y1="33.6395" x2="26.1296" y2="33.6395" gradientUnits="userSpaceOnUse">
<stop offset="0.08" stop-color="#469BF5"/>
<stop offset="0.24" stop-color="#4191F4"/>
<stop offset="0.51" stop-color="#3678F3"/>
<stop offset="0.85" stop-color="#2550F1"/>
<stop offset="1" stop-color="#1C3CF1"/>
</linearGradient>
</defs>
</svg>
