<svg width="123" height="45" viewBox="0 0 123 45" fill="none" xmlns="http://www.w3.org/2000/svg">
<g clip-path="url(#clip0_5638_120785)">
<path d="M19.4317 15.3695C19.4317 15.3695 20.3736 15.8928 21.804 16.6835L40.4606 8.94644C39.7861 8.05489 39.0496 7.21761 38.2511 6.43848C38.1193 6.51213 38.0108 6.55477 38.0108 6.55477L18.5518 14.7376C18.7727 14.9625 19.0596 15.1757 19.4317 15.3695Z" fill="white"/>
<path d="M7.3884 38.4414L26.2699 30.5687L22.7579 28.584L8.34584 34.7085L4.69824 36.2513C5.36884 37.1196 6.10146 37.9336 6.88835 38.6934L7.3884 38.4414Z" fill="white"/>
<path d="M42.4416 12.0824L39.0034 13.4159C36.2512 14.4237 25.4247 18.6915 25.4247 18.6915C27.1923 19.6684 29.1072 20.7188 30.7895 21.6375C35.0961 23.9904 32.371 29.1498 31.8012 30.1305C31.7934 30.146 31.7857 30.1576 31.7779 30.1693C31.7314 30.2468 31.7043 30.2933 31.7043 30.2933C31.7043 30.2933 32.1074 26.4364 29.3901 25.0099C26.6496 23.5873 20.3661 20.2382 17.7263 18.8311C16.482 18.1682 15.5789 16.9627 15.4083 15.5634C15.2804 14.5168 15.544 13.3112 16.7999 12.2569C17.5325 11.5785 18.3194 11.2141 18.3194 11.2141L32.3555 5.45396C32.3555 5.45396 32.4447 5.41907 32.5726 5.35317L35.4914 4.13989C31.8244 1.53502 27.3434 0 22.4981 0C10.0745 0 0 10.0745 0 22.4981C0 26.4984 1.05048 30.2507 2.88009 33.5068L8.31079 31.1383L19.1218 26.6031C17.2573 25.5797 15.5362 24.63 14.7183 24.192C14.3113 23.9749 13.7996 23.6299 13.3926 23.4129C11.2025 22.2539 9.76828 18.99 13.0903 15.1098C13.0903 15.1098 12.7453 18.7884 14.8036 20.0405C16.765 21.2305 24.3742 25.1301 26.6341 26.3395C27.2116 26.6496 27.7466 27.045 28.173 27.5489C29.0529 28.5916 29.3863 29.8747 29.018 31.2352C29.0025 31.305 28.9792 31.367 28.956 31.4329C28.9405 31.4756 28.9288 31.5182 28.9133 31.5609C28.8901 31.6268 28.8668 31.6888 28.8397 31.7547C28.8319 31.7741 28.8242 31.7934 28.8164 31.8128C28.0412 33.6851 25.979 34.2471 25.979 34.2471L25.7309 34.3324L12.5941 39.7244L9.69463 40.9958C13.3306 43.5154 17.7418 44.9961 22.4981 44.9961C34.9255 44.9961 44.9961 34.9216 44.9961 22.4981C45 18.738 44.0736 15.199 42.4416 12.0824Z" fill="white"/>
<g opacity="0.4">
<mask id="mask0_5638_120785" style="mask-type:luminance" maskUnits="userSpaceOnUse" x="17" y="26" width="6" height="4">
<path d="M22.7695 26.5874H17.1411V29.3396H22.7695V26.5874Z" fill="white"/>
</mask>
<g mask="url(#mask0_5638_120785)">
<path d="M19.1335 26.5874L22.7695 28.5682L20.9515 29.3396L17.1411 27.4208L19.1335 26.5874Z" fill="#4D4D4D"/>
</g>
</g>
<g opacity="0.4">
<mask id="mask1_5638_120785" style="mask-type:luminance" maskUnits="userSpaceOnUse" x="24" y="30" width="4" height="5">
<path d="M27.4095 30.5532H24.5488V34.2357H27.4095V30.5532Z" fill="white"/>
</mask>
<g mask="url(#mask1_5638_120785)">
<path d="M25.9753 34.2357C25.9753 34.2357 28.9949 32.096 26.2621 30.5532L24.5449 31.2703C24.5488 31.2665 27.4095 32.034 25.9753 34.2357Z" fill="#4D4D4D"/>
</g>
</g>
<g opacity="0.4">
<mask id="mask2_5638_120785" style="mask-type:luminance" maskUnits="userSpaceOnUse" x="21" y="15" width="7" height="4">
<path d="M27.4985 15.9199H21.8003V18.676H27.4985V15.9199Z" fill="white"/>
</mask>
<g mask="url(#mask2_5638_120785)">
<path d="M25.4363 18.6721L21.8003 16.6952L23.657 15.9199L27.4985 17.8736L25.4363 18.6721Z" fill="#4D4D4D"/>
</g>
</g>
<g opacity="0.4">
<mask id="mask3_5638_120785" style="mask-type:luminance" maskUnits="userSpaceOnUse" x="17" y="11" width="4" height="4">
<path d="M20.2421 11.0244H17.3813V14.7069H20.2421V11.0244Z" fill="white"/>
</mask>
<g mask="url(#mask3_5638_120785)">
<path d="M18.8116 11.0244C18.8116 11.0244 15.792 13.1641 18.5248 14.7069L20.242 13.9898C20.242 13.9937 17.3774 13.2262 18.8116 11.0244Z" fill="#4D4D4D"/>
</g>
</g>
<path d="M61.0946 16.3307H59.3619V21.5793H55.7104V5.60889H62.0986C65.1337 5.60889 67.5719 8.05096 67.5719 11.0822C67.5719 13.0436 66.3858 14.8229 64.6298 15.7144L68.0293 21.5793H64.1065L61.0946 16.3307ZM59.3619 13.1367H62.0986C63.1026 13.1367 63.9243 12.249 63.9243 11.0822C63.9243 9.91934 63.1026 9.02779 62.0986 9.02779H59.3619V13.1367Z" fill="white"/>
<path d="M80.7587 10.1713V21.5793H77.3359V20.5056C76.5839 21.3739 75.4636 21.8972 73.9364 21.8972C70.9478 21.8972 68.4824 19.2729 68.4824 15.8734C68.4824 12.4739 70.9478 9.84961 73.9364 9.84961C75.4636 9.84961 76.5839 10.3729 77.3359 11.2412V10.1675H80.7587V10.1713ZM77.3359 15.8734C77.3359 14.1639 76.1963 13.0902 74.6225 13.0902C73.0487 13.0902 71.9091 14.1639 71.9091 15.8734C71.9091 17.5828 73.0487 18.6566 74.6225 18.6566C76.1963 18.6566 77.3359 17.5867 77.3359 15.8734Z" fill="white"/>
<path d="M94.2176 14.5749V21.5793H90.7949V15.0749C90.7949 13.66 89.9033 12.9972 88.8102 12.9972C87.5543 12.9972 86.6899 13.7259 86.6899 15.3462V21.5755H83.2671V10.1714H86.6899V11.2451C87.3062 10.4001 88.4458 9.85352 89.9537 9.85352C92.2562 9.85352 94.2176 11.4932 94.2176 14.5749Z" fill="white"/>
<path d="M108.269 10.1714V21.0095C108.269 24.8432 105.28 26.4635 102.245 26.4635C99.8729 26.4635 97.8882 25.572 96.8377 23.7036L99.7566 22.0174C100.191 22.8159 100.85 23.4555 102.358 23.4555C103.955 23.4555 104.935 22.6337 104.935 21.0134V19.9629C104.183 20.8971 103.086 21.4476 101.606 21.4476C98.365 21.4476 95.9927 18.8001 95.9927 15.6525C95.9927 12.5049 98.365 9.85742 101.606 9.85742C103.09 9.85742 104.183 10.404 104.935 11.342V10.1792H108.269V10.1714ZM104.939 15.6486C104.939 14.0748 103.8 13.0011 102.179 13.0011C100.559 13.0011 99.4193 14.0748 99.4193 15.6486C99.4193 17.2224 100.559 18.2961 102.179 18.2961C103.8 18.2923 104.939 17.2224 104.939 15.6486Z" fill="white"/>
<path d="M110.207 15.8734C110.207 12.4739 112.897 9.84961 116.25 9.84961C119.603 9.84961 122.297 12.4739 122.297 15.8734C122.297 19.2729 119.607 21.8972 116.25 21.8972C112.901 21.8972 110.207 19.2729 110.207 15.8734ZM118.878 15.8734C118.878 14.2531 117.739 13.1832 116.254 13.1832C114.769 13.1832 113.63 14.257 113.63 15.8734C113.63 17.4937 114.769 18.5674 116.254 18.5674C117.739 18.5674 118.878 17.4937 118.878 15.8734Z" fill="white"/>
<path d="M56.3614 36.3908H61.3231V37.1001H55.6133V27.1807H61.2533V27.89H56.3614V31.7431H60.8967V32.4524H56.3614V36.3908Z" fill="white"/>
<path d="M69.1186 37.1H68.2542L65.8586 34.0106L63.463 37.1H62.5986L65.4322 33.4602L62.7692 30.0142H63.6336L65.8586 32.8904L68.0952 30.0142H68.948L66.2966 33.4447L69.1186 37.1Z" fill="white"/>
<path d="M73.6963 37.2593C72.6303 37.2593 71.7388 36.9065 71.0333 36.1972C70.3239 35.4878 69.9712 34.6118 69.9712 33.5613C69.9712 32.5147 70.3239 31.6348 71.0333 30.9254C71.7427 30.216 72.6303 29.8633 73.6963 29.8633C74.3863 29.8633 75.0104 30.0261 75.5686 30.3517C76.1268 30.6773 76.5338 31.1192 76.7857 31.6774L76.2043 32.0185C75.995 31.565 75.6694 31.2045 75.2197 30.9409C74.7701 30.6773 74.2623 30.5455 73.6963 30.5455C72.8474 30.5455 72.1342 30.8362 71.5566 31.4177C70.979 31.9991 70.6922 32.7162 70.6922 33.5651C70.6922 34.4141 70.979 35.1312 71.5566 35.7126C72.1342 36.2941 72.8474 36.5848 73.6963 36.5848C74.2623 36.5848 74.7701 36.453 75.2197 36.1894C75.6694 35.9258 76.0105 35.5653 76.2469 35.1118L76.84 35.4645C76.557 36.0111 76.1345 36.4491 75.5725 36.7747C75.0104 37.0965 74.3824 37.2593 73.6963 37.2593Z" fill="white"/>
<path d="M81.9837 29.8592C82.8249 29.8592 83.4916 30.115 83.9877 30.6306C84.4839 31.1461 84.732 31.8322 84.732 32.6928V37.1001H84.011V32.6928C84.011 32.0299 83.8288 31.5066 83.4644 31.119C83.1001 30.7314 82.5884 30.5375 81.9256 30.5375C81.1968 30.5375 80.6037 30.7779 80.1386 31.2585C79.6773 31.7392 79.4447 32.4408 79.4447 33.3556V37.0962H78.7354V27.1807H79.4447V31.3593C79.9564 30.3592 80.8053 29.8592 81.9837 29.8592Z" fill="white"/>
<path d="M93.3065 30.0145H94.0275V37.1003H93.3065V35.4994C93.0041 36.046 92.5894 36.4763 92.0583 36.7902C91.5312 37.1003 90.9303 37.2593 90.2597 37.2593C89.248 37.2593 88.3836 36.9026 87.6665 36.1894C86.9494 35.4762 86.5889 34.6001 86.5889 33.5613C86.5889 32.5224 86.9494 31.6464 87.6665 30.9331C88.3836 30.2199 89.248 29.8633 90.2597 29.8633C90.9303 29.8633 91.5312 30.0183 92.0583 30.3323C92.5855 30.6424 93.0041 31.0727 93.3065 31.6231V30.0145ZM88.1859 35.6971C88.7673 36.2824 89.4767 36.577 90.3179 36.577C91.159 36.577 91.8684 36.2824 92.4421 35.6971C93.0196 35.1118 93.3065 34.3986 93.3065 33.5574C93.3065 32.7162 93.0196 32.003 92.4421 31.4177C91.8645 30.8324 91.1551 30.5378 90.3179 30.5378C89.4767 30.5378 88.7673 30.8324 88.1859 31.4177C87.6045 32.003 87.3137 32.7162 87.3137 33.5574C87.3137 34.3986 87.6045 35.1118 88.1859 35.6971Z" fill="white"/>
<path d="M99.7991 29.8594C100.64 29.8594 101.307 30.1152 101.803 30.6308C102.299 31.1463 102.547 31.8324 102.547 32.693V37.1003H101.826V32.693C101.826 32.0301 101.644 31.5068 101.28 31.1192C100.915 30.7315 100.404 30.5377 99.741 30.5377C99.0122 30.5377 98.4192 30.7781 97.954 31.2587C97.4927 31.7394 97.2601 32.441 97.2601 33.3558V37.0964H96.5508V30.0144H97.2601V31.3595C97.7718 30.3594 98.6168 29.8594 99.7991 29.8594Z" fill="white"/>
<path d="M111.176 30.0144H111.886V36.7592C111.886 37.7903 111.552 38.6004 110.878 39.1974C110.207 39.7905 109.366 40.0889 108.354 40.0889C107.54 40.0889 106.846 39.9378 106.273 39.6354C105.695 39.3331 105.276 38.9183 105.013 38.3872L105.637 38.0345C106.09 38.9493 106.998 39.4106 108.358 39.4106C109.238 39.4106 109.928 39.1703 110.428 38.6935C110.928 38.2167 111.18 37.5693 111.18 36.7592V35.4568C110.885 36.0149 110.475 36.453 109.94 36.7747C109.405 37.0964 108.804 37.2554 108.133 37.2554C107.114 37.2554 106.246 36.8987 105.532 36.1855C104.819 35.4723 104.462 34.5962 104.462 33.5574C104.462 32.5185 104.819 31.6425 105.532 30.9292C106.246 30.216 107.114 29.8594 108.133 29.8594C108.804 29.8594 109.405 30.0183 109.94 30.34C110.475 30.6618 110.885 31.0998 111.18 31.658V30.0144H111.176ZM106.04 35.6971C106.622 36.2824 107.331 36.577 108.172 36.577C109.013 36.577 109.723 36.2824 110.304 35.6971C110.885 35.1118 111.176 34.3985 111.176 33.5574C111.176 32.7162 110.885 32.003 110.304 31.4177C109.723 30.8323 109.013 30.5377 108.172 30.5377C107.331 30.5377 106.622 30.8323 106.04 31.4177C105.459 32.003 105.168 32.7162 105.168 33.5574C105.168 34.3985 105.459 35.1118 106.04 35.6971Z" fill="white"/>
<path d="M117.596 29.8594C118.634 29.8594 119.476 30.2276 120.123 30.9641C120.77 31.7006 121.092 32.5728 121.092 33.5845C121.092 33.6233 121.088 33.6775 121.084 33.7551C121.08 33.8326 121.077 33.8869 121.077 33.9256H114.657C114.743 34.7203 115.061 35.3598 115.615 35.8444C116.169 36.3328 116.851 36.5731 117.662 36.5731C118.227 36.5731 118.724 36.4568 119.15 36.2204C119.576 35.9839 119.894 35.6738 120.115 35.2862L120.739 35.6544C120.445 36.1467 120.03 36.5344 119.491 36.8251C118.952 37.1119 118.34 37.2554 117.65 37.2554C116.565 37.2554 115.669 36.9065 114.971 36.2126C114.274 35.5188 113.921 34.6311 113.921 33.5574C113.921 32.4991 114.262 31.6192 114.948 30.9137C115.638 30.2121 116.522 29.8594 117.596 29.8594ZM117.596 30.5416C116.793 30.5416 116.123 30.7936 115.584 31.2936C115.045 31.7937 114.739 32.441 114.661 33.2356H120.359C120.286 32.3945 119.983 31.7355 119.46 31.2587C118.937 30.7781 118.317 30.5416 117.596 30.5416Z" fill="white"/>
</g>
<defs>
<clipPath id="clip0_5638_120785">
<rect width="122.301" height="45" fill="white"/>
</clipPath>
</defs>
</svg>
