<svg width="124" height="45" viewBox="0 0 124 45" fill="none" xmlns="http://www.w3.org/2000/svg">
<g clip-path="url(#clip0_6577_57151)">
<path d="M61.5225 16.129H59.7776V21.4426H56.1006V5.27441H62.5335C65.5899 5.27441 68.0452 7.74673 68.0452 10.8155C68.0452 12.8012 66.8507 14.6025 65.0824 15.5051L68.5058 21.4426H64.5555L61.5225 16.129ZM59.7776 12.8954H62.5335C63.5445 12.8954 64.372 11.9967 64.372 10.8155C64.372 9.63432 63.5445 8.73565 62.5335 8.73565H59.7776V12.8915V12.8954Z" fill="#010101"/>
<path d="M81.3246 9.8931V21.4423H77.8779V20.3553C77.1206 21.2343 75.9925 21.7641 74.4546 21.7641C71.445 21.7641 68.9624 19.1074 68.9624 15.6658C68.9624 12.2241 71.445 9.56738 74.4546 9.56738C75.9925 9.56738 77.1206 10.0972 77.8779 10.9762V9.88918H81.3246V9.8931ZM77.8779 15.6658C77.8779 13.9351 76.7303 12.8481 75.1455 12.8481C73.5607 12.8481 72.4131 13.9351 72.4131 15.6658C72.4131 17.3964 73.5607 18.4834 75.1455 18.4834C76.7303 18.4834 77.8779 17.3964 77.8779 15.6658Z" fill="#010101"/>
<path d="M94.8776 14.3472V21.4384H91.4308V14.8573C91.4308 13.425 90.537 12.7539 89.4323 12.7539C88.1676 12.7539 87.2971 13.4917 87.2971 15.132V21.4384H83.8503V9.89308H87.2971V10.9801C87.9177 10.1246 89.0654 9.57129 90.5838 9.57129C92.9025 9.57129 94.8815 11.2352 94.8815 14.3511L94.8776 14.3472Z" fill="#010101"/>
<path d="M109.028 9.89306V20.8654C109.028 24.7466 106.018 26.3869 102.962 26.3869C100.573 26.3869 98.5741 25.4843 97.5162 23.5928L100.456 21.8857C100.893 22.6941 101.56 23.3417 103.075 23.3417C104.683 23.3417 105.671 22.5097 105.671 20.8693V19.8059C104.913 20.7516 103.809 21.3089 102.317 21.3089C99.0542 21.3089 96.6653 18.6286 96.6653 15.442C96.6653 12.2555 99.0542 9.5752 102.317 9.5752C103.813 9.5752 104.913 10.1285 105.671 11.0782V9.90091H109.024L109.028 9.89306ZM105.674 15.4342C105.674 13.8409 104.527 12.7539 102.895 12.7539C101.264 12.7539 100.116 13.8409 100.116 15.4342C100.116 17.0275 101.264 18.1145 102.895 18.1145C104.527 18.1145 105.674 17.0275 105.674 15.4342Z" fill="#010101"/>
<path d="M110.979 15.6658C110.979 12.2241 113.688 9.56738 117.069 9.56738C120.449 9.56738 123.158 12.2241 123.158 15.6658C123.158 19.1074 120.445 21.7641 117.069 21.7641C113.692 21.7641 110.979 19.1074 110.979 15.6658ZM119.707 15.6658C119.707 14.0254 118.56 12.9423 117.065 12.9423C115.57 12.9423 114.422 14.0293 114.422 15.6658C114.422 17.3022 115.57 18.3892 117.065 18.3892C118.56 18.3892 119.707 17.3022 119.707 15.6658Z" fill="#010101"/>
<path d="M56.7563 36.4374H61.7527V37.1556H56.0029V27.1133H61.6825V27.8314H56.7602V31.7322H61.3272V32.4503H56.7602V36.4374H56.7563Z" fill="#010101"/>
<path d="M69.6025 37.1561H68.732L66.3197 34.0284L63.9073 37.1561H63.0369L65.8903 33.4672L63.2086 29.9824H64.0791L66.3197 32.8943L68.5759 29.9824H69.4307L66.7608 33.4554L69.6025 37.1561Z" fill="#010101"/>
<path d="M74.2126 37.3128C73.1392 37.3128 72.2453 36.9557 71.531 36.2375C70.8166 35.5194 70.4614 34.6325 70.4614 33.569C70.4614 32.5055 70.8166 31.6186 71.531 30.9005C72.2453 30.1823 73.1392 29.8252 74.2126 29.8252C74.9075 29.8252 75.5359 29.99 76.098 30.3197C76.6601 30.6493 77.07 31.0967 77.3237 31.6618L76.7382 32.0071C76.5274 31.548 76.1995 31.183 75.7467 30.9162C75.2939 30.6493 74.7825 30.5159 74.2126 30.5159C73.3578 30.5159 72.6396 30.8102 72.0579 31.3988C71.4763 31.9875 71.1875 32.7135 71.1875 33.5729C71.1875 34.4323 71.4763 35.1583 72.0579 35.747C72.6396 36.3356 73.3578 36.6299 74.2126 36.6299C74.7825 36.6299 75.2939 36.4965 75.7467 36.2297C76.1995 35.9628 76.543 35.5978 76.7811 35.1387L77.3823 35.4958C77.0973 36.0491 76.6718 36.4926 76.1058 36.8222C75.5398 37.1519 74.9075 37.3167 74.2166 37.3167L74.2126 37.3128Z" fill="#010101"/>
<path d="M82.5582 29.825C83.4053 29.825 84.0766 30.084 84.5763 30.6059C85.0759 31.1279 85.3258 31.8225 85.3258 32.6937V37.1556H84.5997V32.6937C84.5997 32.0226 84.4163 31.4928 84.0493 31.1004C83.6824 30.708 83.1671 30.5117 82.4997 30.5117C81.7658 30.5117 81.1686 30.7551 80.7002 31.2417C80.2357 31.7283 80.0014 32.4386 80.0014 33.3647V37.1517H79.2871V27.1094H80.0014V31.3398C80.5167 30.3273 81.3677 29.8171 82.5543 29.8171L82.5582 29.825Z" fill="#010101"/>
<path d="M93.96 29.9821H94.6899V37.1558H93.96V35.535C93.6555 36.0884 93.2379 36.524 92.7031 36.8418C92.1683 37.1558 91.5672 37.3167 90.8919 37.3167C89.8731 37.3167 89.0026 36.9556 88.2805 36.2336C87.5583 35.5115 87.1953 34.6246 87.1953 33.5729C87.1953 32.5212 87.5583 31.6343 88.2805 30.9122C89.0026 30.1901 89.8731 29.8291 90.8919 29.8291C91.5672 29.8291 92.1722 29.9861 92.7031 30.3039C93.234 30.6179 93.6555 31.0535 93.96 31.6107V29.99V29.9821ZM88.7996 35.7352C89.3852 36.3277 90.0995 36.626 90.9465 36.626C91.7936 36.626 92.5079 36.3277 93.0856 35.7352C93.6672 35.1426 93.9561 34.4205 93.9561 33.569C93.9561 32.7174 93.6672 31.9953 93.0856 31.4027C92.504 30.8102 91.7897 30.5119 90.9465 30.5119C90.1034 30.5119 89.3852 30.8102 88.7996 31.4027C88.2141 31.9953 87.9214 32.7174 87.9214 33.569C87.9214 34.4205 88.2141 35.1426 88.7996 35.7352Z" fill="#010101"/>
<path d="M100.498 29.8252C101.345 29.8252 102.017 30.0842 102.516 30.6062C103.016 31.1281 103.266 31.8227 103.266 32.6939V37.1558H102.54V32.6939C102.54 32.0228 102.356 31.4931 101.99 31.1006C101.623 30.7082 101.107 30.512 100.44 30.512C99.706 30.512 99.1088 30.7553 98.6403 31.2419C98.1758 31.7285 97.9416 32.4388 97.9416 33.365V37.1519H97.2273V29.9783H97.9416V31.34C98.4569 30.3275 99.3078 29.8174 100.494 29.8174L100.498 29.8252Z" fill="#010101"/>
<path d="M111.955 29.9822H112.669V36.8105C112.669 37.8543 112.33 38.6745 111.655 39.2788C110.979 39.8832 110.132 40.1814 109.113 40.1814C108.294 40.1814 107.595 40.0284 107.017 39.7223C106.436 39.4162 106.014 38.9963 105.749 38.4587L106.377 38.1016C106.834 39.0277 107.747 39.4947 109.117 39.4947C110.003 39.4947 110.698 39.2514 111.202 38.7687C111.705 38.286 111.959 37.6346 111.959 36.8105V35.4919C111.662 36.057 111.249 36.5004 110.71 36.8262C110.171 37.1519 109.566 37.3128 108.891 37.3128C107.864 37.3128 106.99 36.9517 106.272 36.2297C105.553 35.5076 105.194 34.6207 105.194 33.569C105.194 32.5173 105.553 31.6304 106.272 30.9083C106.99 30.1862 107.864 29.8252 108.891 29.8252C109.566 29.8252 110.171 29.9861 110.71 30.3118C111.249 30.6375 111.662 31.081 111.959 31.6461V29.9822H111.955ZM106.783 35.7352C107.369 36.3278 108.083 36.626 108.93 36.626C109.777 36.626 110.491 36.3278 111.077 35.7352C111.662 35.1426 111.955 34.4206 111.955 33.569C111.955 32.7174 111.662 31.9953 111.077 31.4028C110.491 30.8102 109.777 30.5119 108.93 30.5119C108.083 30.5119 107.369 30.8102 106.783 31.4028C106.198 31.9953 105.905 32.7174 105.905 33.569C105.905 34.4206 106.198 35.1426 106.783 35.7352Z" fill="#010101"/>
<path d="M118.419 29.8252C119.465 29.8252 120.316 30.198 120.968 30.9436C121.62 31.6892 121.944 32.5761 121.944 33.5965C121.944 33.6357 121.944 33.6906 121.936 33.7691C121.932 33.8476 121.928 33.9025 121.928 33.9418H115.464C115.55 34.7463 115.87 35.3938 116.428 35.8843C116.987 36.3788 117.674 36.6221 118.489 36.6221C119.059 36.6221 119.559 36.5044 119.988 36.265C120.418 36.0256 120.738 35.7117 120.96 35.3192L121.589 35.692C121.296 36.1904 120.874 36.5828 120.332 36.8772C119.789 37.1715 119.173 37.3167 118.478 37.3167C117.385 37.3167 116.483 36.9635 115.78 36.2611C115.078 35.5586 114.723 34.6599 114.723 33.5729C114.723 32.4859 115.066 31.6108 115.757 30.8965C116.448 30.1862 117.334 29.8291 118.419 29.8291V29.8252ZM118.419 30.5119C117.611 30.5119 116.936 30.767 116.393 31.2733C115.851 31.7795 115.542 32.4349 115.464 33.2393H121.202C121.124 32.3878 120.824 31.7206 120.297 31.2379C119.77 30.7553 119.141 30.5119 118.419 30.5119Z" fill="#010101"/>
<path d="M22.3785 44.9961C34.7378 44.9961 44.757 34.9234 44.757 22.498C44.757 10.0727 34.7378 0 22.3785 0C10.0192 0 0 10.0727 0 22.498C0 34.9234 10.0192 44.9961 22.3785 44.9961Z" fill="white"/>
<path d="M19.326 15.3712C19.326 15.3712 20.2668 15.8931 21.6876 16.6858L40.2446 8.9471C39.5732 8.05628 38.8394 7.21648 38.047 6.43555C37.9182 6.51011 37.8089 6.55328 37.8089 6.55328L18.4517 14.7354C18.6703 14.9591 18.9552 15.175 19.326 15.3673V15.3712Z" fill="url(#paint0_linear_6577_57151)"/>
<path d="M42.2159 12.0829L38.7964 13.4133C36.0601 14.4218 25.2905 18.6875 25.2905 18.6875C27.0509 19.6647 28.9519 20.7164 30.6265 21.6347C34.9086 23.9853 32.1996 29.1458 31.6336 30.1269C31.6258 30.1387 31.618 30.1544 31.6102 30.1661C31.5633 30.2446 31.536 30.2917 31.536 30.2917C31.536 30.2917 31.9381 26.4341 29.233 25.0096C26.5084 23.5851 20.2589 20.2416 17.6319 18.8327C16.3945 18.1695 15.4967 16.9648 15.3289 15.5677C15.204 14.5199 15.4655 13.3152 16.7146 12.2635C17.4445 11.5845 18.2252 11.2196 18.2252 11.2196L32.1879 5.45871C32.1879 5.45871 32.2777 5.42339 32.4065 5.35668L35.3106 4.14407C31.657 1.5344 27.1993 0 22.3785 0C10.0202 0 0 10.0737 0 22.498C0 26.4969 1.04222 30.2525 2.86514 33.5057L8.26752 31.1394L19.0215 26.6029C17.1674 25.5825 15.4538 24.6289 14.6419 24.1933C14.2359 23.9736 13.7284 23.6322 13.3225 23.4163C11.1444 22.2587 9.7157 18.9897 13.0219 15.1125C13.0219 15.1125 12.6784 18.7935 14.7238 20.0414C16.6756 21.2344 24.2444 25.1312 26.4888 26.3399C27.0666 26.65 27.5974 27.0463 28.019 27.5486C28.8934 28.5886 29.2252 29.8757 28.8582 31.2335C28.8426 31.3003 28.8192 31.367 28.7997 31.4298C28.788 31.4729 28.7724 31.5161 28.7567 31.5553C28.7333 31.622 28.7099 31.6848 28.6865 31.7476C28.6787 31.7672 28.6709 31.7869 28.6631 31.8065C27.8941 33.6784 25.8409 34.2396 25.8409 34.2396L25.591 34.322L12.5223 39.714L9.64153 40.9854C13.2561 43.5048 17.6436 44.9882 22.3785 44.9882C34.7368 44.9882 44.757 34.9145 44.757 22.4902C44.757 18.7307 43.8358 15.1871 42.212 12.0712L42.2159 12.0829Z" fill="url(#paint1_linear_6577_57151)"/>
<path d="M22.6361 28.585L8.29867 34.7069L4.66846 36.2491C5.33595 37.1164 6.06199 37.9327 6.84658 38.6901L7.34623 38.4389L26.1257 30.5668L22.6322 28.5811L22.6361 28.585Z" fill="url(#paint2_linear_6577_57151)"/>
<path opacity="0.1" d="M19.0176 26.6025L22.6361 28.5843L20.8249 29.3574L17.0386 27.4384L19.0176 26.6025Z" fill="#4D4D4D"/>
<path opacity="0.1" d="M25.8408 34.2513C25.8408 34.2513 28.8464 32.1126 26.1257 30.5703L24.4199 31.2845C24.4199 31.2845 27.2694 32.0537 25.8408 34.2513Z" fill="#4D4D4D"/>
<path opacity="0.1" d="M19.0176 26.6025L22.6361 28.5843L20.8249 29.3574L17.0386 27.4384L19.0176 26.6025Z" fill="#4D4D4D"/>
<path opacity="0.1" d="M25.8408 34.2513C25.8408 34.2513 28.8464 32.1126 26.1257 30.5703L24.4199 31.2845C24.4199 31.2845 27.2694 32.0537 25.8408 34.2513Z" fill="#4D4D4D"/>
<path opacity="0.3" d="M20.3097 13.9192L18.3971 14.7276C18.3971 14.7276 15.6295 12.2945 19.0099 10.9014C19.0099 10.9014 17.913 12.7733 20.3058 13.9192H20.3097Z" fill="#4D4D4D"/>
<path opacity="0.3" d="M25.2904 18.7109L21.6602 16.6938L23.405 15.9639L26.9728 18.0281L25.2904 18.7109Z" fill="#4D4D4D"/>
</g>
<defs>
<linearGradient id="paint0_linear_6577_57151" x1="18.4517" y1="11.5646" x2="40.2446" y2="11.5646" gradientUnits="userSpaceOnUse">
<stop stop-color="#469BF5"/>
<stop offset="0.09" stop-color="#3A81F3"/>
<stop offset="0.21" stop-color="#2F68F2"/>
<stop offset="0.34" stop-color="#2654F2"/>
<stop offset="0.49" stop-color="#2046F1"/>
<stop offset="0.67" stop-color="#1D3EF1"/>
<stop offset="1" stop-color="#1C3CF1"/>
</linearGradient>
<linearGradient id="paint1_linear_6577_57151" x1="0" y1="22.498" x2="44.7609" y2="22.498" gradientUnits="userSpaceOnUse">
<stop offset="0.08" stop-color="#469BF5"/>
<stop offset="0.7" stop-color="#2756F2"/>
<stop offset="1" stop-color="#1C3CF1"/>
</linearGradient>
<linearGradient id="paint2_linear_6577_57151" x1="4.67236" y1="33.6395" x2="26.1296" y2="33.6395" gradientUnits="userSpaceOnUse">
<stop offset="0.08" stop-color="#469BF5"/>
<stop offset="0.24" stop-color="#4191F4"/>
<stop offset="0.51" stop-color="#3678F3"/>
<stop offset="0.85" stop-color="#2550F1"/>
<stop offset="1" stop-color="#1C3CF1"/>
</linearGradient>
<clipPath id="clip0_6577_57151">
<rect width="123.158" height="45" fill="white"/>
</clipPath>
</defs>
</svg>
