<?xml version="1.0" encoding="UTF-8"?>
<svg id="Layer_2" xmlns="http://www.w3.org/2000/svg" viewBox="0 0 941.83 344.9">
  <defs>
    <style>
      .cls-1 {
        fill: #fff;
      }

      .cls-2 {
        fill: #070707;
        isolation: isolate;
        opacity: .4;
      }
    </style>
  </defs>
  <g id="Layer_1-2" data-name="Layer_1">
    <g>
      <g>
        <g>
          <g>
            <path class="cls-1" d="M148.83,117.6s7.2,4,18.2,10.1l143-59.3c-5.2-6.8-10.8-13.2-16.9-19.2-1,.6-1.9.9-1.9.9l-149.1,62.7c1.7,1.7,3.9,3.4,6.7,4.9v-.1Z"/>
            <path class="cls-1" d="M56.53,294.4l144.7-60.3-26.9-15.2-110.4,46.9-28,11.8c5.1,6.6,10.8,12.9,16.8,18.7,0,0,3.8-1.9,3.8-1.9Z"/>
            <path class="cls-1" d="M325.13,92.4l-26.3,10.2c-21.1,7.7-104.1,40.4-104.1,40.4,13.6,7.5,28.2,15.5,41.1,22.6,33,18,12.1,57.6,7.8,65.1,0,.1-.1.2-.2.3-.4.6-.6,1-.6,1,0,0,3.1-29.6-17.7-40.5-21-10.9-69.1-36.6-89.4-47.4-9.5-5.1-16.4-14.3-17.8-25-1-8,1-17.2,10.7-25.3,5.2-4.8,10.7-7.6,11.6-7.9h.2l107.5-44.1s.7-.3,1.7-.8l22.4-9.3C243.93,11.7,209.53,0,172.43,0,77.03,0-1.67,80.3.03,175.6c.5,29.5,8.5,57.1,22,81.1l41.6-18.1,82.8-34.8c-14.3-7.8-27.5-15.1-33.7-18.5-3.1-1.7-7-4.3-10.2-6-16.8-8.9-27.8-33.9-2.3-63.6,0,0-2.6,28.2,13.1,37.8,15.1,9.2,73.6,39.1,90.8,48.4,3.9,2.1,7.5,4.7,10.5,7.9,7.6,8.2,10.6,18.5,7.6,29.5-.1.5-.3,1-.5,1.5-.1.3-.2.6-.3,1-.2.5-.4,1-.5,1.5,0,.1-.1.3-.2.5-5.9,14.3-21.7,18.7-21.7,18.7l-1.9.6-100.7,41.3-22.2,9.8c28.1,19.5,62.2,30.9,99.1,30.7,95.5-.5,173.8-81.3,171.4-176.7-.7-27.2-7.7-52.8-19.6-75.5v-.3Z"/>
          </g>
          <polygon class="cls-2" points="146.53 203.5 174.43 218.7 160.43 224.6 131.23 209.9 146.53 203.5"/>
          <path class="cls-2" d="M198.93,262.1s23.1-16.4,2.2-28.2l-13.2,5.5s21.9,5.9,11,22.7Z"/>
          <polygon class="cls-2" points="194.83 142.9 167.03 127.7 181.23 121.8 210.63 136.8 194.83 142.9"/>
          <path class="cls-2" d="M144.33,84.2s-23.4,16.6-2.2,28.5l13.3-5.5s-22.2-5.9-11.1-23Z"/>
        </g>
        <g>
          <path class="cls-1" d="M472.83,135.5h-13.3v40.2h-28V53.3h48.9c23.2,0,42,18.7,42,42s-9.1,28.7-22.5,35.5l26,44.9h-30.1l-23.1-40.2h.1ZM459.53,111h21c7.7,0,14-6.8,14-15.7s-6.3-15.7-14-15.7h-21v31.5-.1Z"/>
          <path class="cls-1" d="M623.53,88.3v87.4h-26.2v-8.2c-5.8,6.6-14.3,10.7-26,10.7-22.9,0-41.8-20.1-41.8-46.2s18.9-46.2,41.8-46.2,20.3,4,26,10.7v-8.2h26.2ZM597.33,132c0-13.1-8.7-21.3-20.8-21.3s-20.8,8.2-20.8,21.3,8.7,21.3,20.8,21.3,20.8-8.2,20.8-21.3Z"/>
          <path class="cls-1" d="M726.73,122v53.7h-26.2v-49.8c0-10.8-6.8-15.9-15.2-15.9s-16.3,5.6-16.3,18v47.7h-26.2v-87.4h26.2v8.2c4.7-6.5,13.5-10.7,25-10.7,17.7,0,32.7,12.6,32.7,36.2Z"/>
          <path class="cls-1" d="M834.33,88.3v83c0,29.4-22.9,41.8-46.2,41.8s-33.4-6.8-41.4-21.1l22.4-12.9c3.3,6.1,8.4,11,19.9,11s19.8-6.3,19.8-18.7v-8c-5.8,7.2-14.2,11.4-25.5,11.4-24.8,0-43-20.3-43-44.4s18.2-44.4,43-44.4,19.8,4.2,25.5,11.4v-8.9h25.5v-.2ZM808.83,130.2c0-12.1-8.7-20.3-21.2-20.3s-21.2,8.2-21.2,20.3,8.7,20.3,21.2,20.3,21.2-8.2,21.2-20.3Z"/>
          <path class="cls-1" d="M849.23,132c0-26.1,20.6-46.2,46.3-46.2s46.3,20.1,46.3,46.2-20.6,46.2-46.3,46.2-46.3-20.1-46.3-46.2ZM915.63,132c0-12.4-8.7-20.6-20.1-20.6s-20.1,8.2-20.1,20.6,8.7,20.6,20.1,20.6,20.1-8.2,20.1-20.6Z"/>
        </g>
      </g>
      <g>
        <path class="cls-1" d="M442.13,288.31h37.26v10.11h-47.97v-80.27h47.37v10.11h-36.67v24.68h33.79v10.01h-33.79v25.47-.1Z"/>
        <path class="cls-1" d="M541.03,298.42h-11.69l-16.15-21.7-16.15,21.7h-11.69l22-29.53-20.71-27.85h11.79l14.77,19.92,14.87-19.92h11.69l-20.71,27.75,21.9,29.53.1.1Z"/>
        <path class="cls-1" d="M573.24,299.91c-8.62,0-15.86-2.87-21.6-8.62-5.75-5.75-8.62-12.98-8.62-21.51s2.87-15.76,8.62-21.51c5.75-5.75,12.88-8.62,21.6-8.62s10.7,1.39,15.26,4.06c4.56,2.68,7.83,6.34,10.11,11l-8.42,4.86c-1.49-3.07-3.67-5.55-6.74-7.33-2.97-1.88-6.44-2.77-10.31-2.77-5.75,0-10.5,1.98-14.37,5.85-3.87,3.86-5.75,8.72-5.75,14.57s1.88,10.5,5.75,14.47c3.87,3.86,8.62,5.85,14.37,5.85s7.23-.89,10.31-2.68c3.07-1.78,5.35-4.26,7.04-7.33l8.52,4.96c-2.48,4.56-5.95,8.13-10.5,10.8s-9.71,4.06-15.26,4.06v-.1Z"/>
        <path class="cls-1" d="M637.46,239.55c6.74,0,12.09,2.08,16.15,6.34s6.05,10.01,6.05,17.24v35.18h-10.01v-34.69c0-4.66-1.29-8.32-3.77-10.8-2.48-2.58-6.05-3.86-10.41-3.86s-9.02,1.59-12.09,4.66c-3.07,3.07-4.56,7.83-4.56,14.27v30.42h-10.01v-80.27h10.01v31.22c4.06-6.54,10.21-9.71,18.63-9.71h0Z"/>
        <path class="cls-1" d="M721.1,241.04h10.01v57.38h-10.01v-9.91c-4.96,7.53-12.19,11.4-21.7,11.4s-14.87-2.97-20.51-8.82c-5.65-5.85-8.52-12.98-8.52-21.41s2.87-15.56,8.52-21.41c5.65-5.85,12.49-8.82,20.51-8.82s16.75,3.77,21.7,11.4v-9.91.1ZM700.69,290.2c5.85,0,10.7-1.98,14.57-5.95,3.87-3.96,5.85-8.82,5.85-14.67s-1.98-10.7-5.85-14.67c-3.87-3.96-8.72-5.95-14.57-5.95s-10.5,1.98-14.47,5.95c-3.87,3.96-5.85,8.82-5.85,14.67s1.98,10.7,5.85,14.67c3.87,3.96,8.72,5.95,14.47,5.95Z"/>
        <path class="cls-1" d="M774.81,239.55c6.74,0,12.09,2.08,16.15,6.34s6.05,10.01,6.05,17.24v35.18h-10.01v-34.69c0-4.66-1.29-8.32-3.77-10.8-2.48-2.58-6.05-3.86-10.41-3.86s-9.02,1.59-12.09,4.66c-3.07,3.07-4.56,7.83-4.56,14.27v30.42h-10.01v-57.38h10.01v8.23c4.06-6.54,10.21-9.71,18.63-9.71v.1Z"/>
        <path class="cls-1" d="M858.56,241.04h9.91v54.9c0,8.52-2.87,15.06-8.62,19.82s-12.59,7.04-20.61,7.04-11.99-1.19-16.65-3.57-8.23-5.85-10.5-10.41l8.72-4.96c3.17,6.44,9.41,9.61,18.73,9.61s10.6-1.59,14.07-4.66c3.37-3.17,5.15-7.43,5.15-12.88v-8.13c-5.05,7.63-12.19,11.5-21.6,11.5s-15.06-2.87-20.81-8.72c-5.65-5.85-8.52-12.88-8.52-21.21s2.87-15.36,8.52-21.21c5.65-5.75,12.59-8.62,20.81-8.62s16.55,3.77,21.6,11.4v-9.91h-.2ZM823.57,283.95c3.87,3.86,8.72,5.85,14.57,5.85s10.7-1.98,14.57-5.85,5.85-8.72,5.85-14.57-1.98-10.5-5.85-14.47c-3.87-3.86-8.72-5.85-14.57-5.85s-10.7,1.98-14.57,5.85-5.85,8.72-5.85,14.47,1.98,10.7,5.85,14.57Z"/>
        <path class="cls-1" d="M890.57,274.24c.99,5.15,3.37,9.12,7.04,11.89,3.67,2.87,8.32,4.26,13.68,4.26s13.08-2.77,16.55-8.32l8.52,4.86c-5.55,8.62-13.97,12.98-25.27,12.98s-16.55-2.87-22.2-8.52c-5.65-5.65-8.52-12.88-8.52-21.6s2.77-15.86,8.42-21.6c5.55-5.75,12.78-8.62,21.7-8.62s15.26,2.97,20.61,8.92c5.35,5.95,7.93,13.08,7.93,21.41s-.1,2.97-.3,4.46h-48.06l-.1-.1ZM910.39,248.97c-5.35,0-9.81,1.49-13.28,4.56-3.47,2.97-5.65,7.04-6.54,12.09h38.35c-.89-5.45-2.97-9.51-6.44-12.39s-7.43-4.26-12.09-4.26h0Z"/>
      </g>
    </g>
  </g>
</svg>