<svg width="830" height="355" viewBox="0 0 830 355" fill="none" xmlns="http://www.w3.org/2000/svg">
<path d="M266.207 282.892H228.381V349.383H136.672V282.892H0V214.971L142.738 5.84515H228.381V213.541H266.207V282.892ZM136.672 213.541V173.503C136.672 165.996 137.029 155.987 137.386 143.117C138.099 130.248 138.456 123.814 138.813 123.099H136.315C130.962 135.253 124.896 146.335 118.116 157.059L80.2903 213.541H136.672Z" fill="#B5D9FF"/>
<path d="M538.124 178.151C538.124 238.922 527.775 283.607 507.792 311.848C487.451 340.089 456.406 354.388 414.298 354.388C373.261 354.388 342.572 339.731 321.518 310.061C300.821 280.39 290.473 236.42 290.473 178.151C290.473 117.021 300.464 72.3364 321.161 43.7381C341.502 15.1397 372.547 0.840454 414.655 0.840454C455.335 0.840454 486.381 15.8546 507.078 45.5255C527.775 75.1963 538.124 119.166 538.124 178.151ZM382.539 178.151C382.539 217.116 385.037 243.927 389.676 258.226C394.672 272.883 402.522 280.032 413.941 280.032C425.36 280.032 433.568 272.525 438.564 257.511C443.203 242.497 445.701 216.043 445.701 178.151C445.701 139.9 443.203 113.447 438.564 98.075C433.568 82.7034 425.717 75.1963 414.298 75.1963C402.879 75.1963 394.672 82.7034 390.033 97.36C385.037 112.017 382.539 138.828 382.539 178.151Z" fill="#B5D9FF"/>
<path d="M829.308 282.892H791.483V349.383H699.773V282.892H563.102V214.971L705.84 5.84515H791.483V213.541H829.308V282.892ZM700.13 213.541V173.503C700.13 165.996 700.487 155.987 700.844 143.117C701.558 130.248 701.915 123.814 702.271 123.099H699.773C694.421 135.253 688.354 146.335 681.574 157.059L643.392 213.898H700.13V213.541Z" fill="#B5D9FF"/>
</svg>
