<svg width="32" height="32" viewBox="0 0 32 32" fill="none" xmlns="http://www.w3.org/2000/svg">
<path d="M8 4C8 5.06087 7.57857 6.07828 6.82843 6.82843C6.07828 7.57857 5.06087 8 4 8C2.93913 8 1.92172 7.57857 1.17157 6.82843C0.421427 6.07828 0 5.06087 0 4C0 2.93913 0.421427 1.92172 1.17157 1.17157C1.92172 0.421427 2.93913 0 4 0C5.06087 0 6.07828 0.421427 6.82843 1.17157C7.57857 1.92172 8 2.93913 8 4ZM8 16C8 17.0609 7.57857 18.0783 6.82843 18.8284C6.07828 19.5786 5.06087 20 4 20C2.93913 20 1.92172 19.5786 1.17157 18.8284C0.421427 18.0783 0 17.0609 0 16C0 14.9391 0.421427 13.9217 1.17157 13.1716C1.92172 12.4214 2.93913 12 4 12C5.06087 12 6.07828 12.4214 6.82843 13.1716C7.57857 13.9217 8 14.9391 8 16ZM4 32C5.06087 32 6.07828 31.5786 6.82843 30.8284C7.57857 30.0783 8 29.0609 8 28C8 26.9391 7.57857 25.9217 6.82843 25.1716C6.07828 24.4214 5.06087 24 4 24C2.93913 24 1.92172 24.4214 1.17157 25.1716C0.421427 25.9217 0 26.9391 0 28C0 29.0609 0.421427 30.0783 1.17157 30.8284C1.92172 31.5786 2.93913 32 4 32ZM20 4C20 5.06087 19.5786 6.07828 18.8284 6.82843C18.0783 7.57857 17.0609 8 16 8C14.9391 8 13.9217 7.57857 13.1716 6.82843C12.4214 6.07828 12 5.06087 12 4C12 2.93913 12.4214 1.92172 13.1716 1.17157C13.9217 0.421427 14.9391 0 16 0C17.0609 0 18.0783 0.421427 18.8284 1.17157C19.5786 1.92172 20 2.93913 20 4ZM16 20C17.0609 20 18.0783 19.5786 18.8284 18.8284C19.5786 18.0783 20 17.0609 20 16C20 14.9391 19.5786 13.9217 18.8284 13.1716C18.0783 12.4214 17.0609 12 16 12C14.9391 12 13.9217 12.4214 13.1716 13.1716C12.4214 13.9217 12 14.9391 12 16C12 17.0609 12.4214 18.0783 13.1716 18.8284C13.9217 19.5786 14.9391 20 16 20ZM20 28C20 29.0609 19.5786 30.0783 18.8284 30.8284C18.0783 31.5786 17.0609 32 16 32C14.9391 32 13.9217 31.5786 13.1716 30.8284C12.4214 30.0783 12 29.0609 12 28C12 26.9391 12.4214 25.9217 13.1716 25.1716C13.9217 24.4214 14.9391 24 16 24C17.0609 24 18.0783 24.4214 18.8284 25.1716C19.5786 25.9217 20 26.9391 20 28ZM28 8C29.0609 8 30.0783 7.57857 30.8284 6.82843C31.5786 6.07828 32 5.06087 32 4C32 2.93913 31.5786 1.92172 30.8284 1.17157C30.0783 0.421427 29.0609 0 28 0C26.9391 0 25.9217 0.421427 25.1716 1.17157C24.4214 1.92172 24 2.93913 24 4C24 5.06087 24.4214 6.07828 25.1716 6.82843C25.9217 7.57857 26.9391 8 28 8ZM32 16C32 17.0609 31.5786 18.0783 30.8284 18.8284C30.0783 19.5786 29.0609 20 28 20C26.9391 20 25.9217 19.5786 25.1716 18.8284C24.4214 18.0783 24 17.0609 24 16C24 14.9391 24.4214 13.9217 25.1716 13.1716C25.9217 12.4214 26.9391 12 28 12C29.0609 12 30.0783 12.4214 30.8284 13.1716C31.5786 13.9217 32 14.9391 32 16ZM28 32C29.0609 32 30.0783 31.5786 30.8284 30.8284C31.5786 30.0783 32 29.0609 32 28C32 26.9391 31.5786 25.9217 30.8284 25.1716C30.0783 24.4214 29.0609 24 28 24C26.9391 24 25.9217 24.4214 25.1716 25.1716C24.4214 25.9217 24 26.9391 24 28C24 29.0609 24.4214 30.0783 25.1716 30.8284C25.9217 31.5786 26.9391 32 28 32Z" fill="#000000"/>
</svg>
