<svg width="16" height="16" viewBox="0 0 16 16" fill="none" xmlns="http://www.w3.org/2000/svg">
<circle opacity="0.5" cx="8" cy="8" r="8" fill="#D0D0D0"/>
<path fill-rule="evenodd" clip-rule="evenodd" d="M5.12165 9.9185C4.85671 10.1834 4.85661 10.613 5.12144 10.8781C5.38626 11.1431 5.81572 11.1432 6.08067 10.8783L7.99971 8.95944L9.91887 10.8784C10.1838 11.1433 10.6133 11.1432 10.8781 10.8782C11.1429 10.6132 11.1428 10.1836 10.8779 9.91863L8.95916 8.00009L10.8779 6.08151C11.1429 5.81659 11.143 5.38698 10.8781 5.12194C10.6133 4.8569 10.1838 4.8568 9.9189 5.12172L7.99971 7.04073L6.08064 5.12185C5.81569 4.85693 5.38623 4.85703 5.12141 5.12207C4.85658 5.38711 4.85668 5.81672 5.12162 6.08164L7.04026 8.00009L5.12165 9.9185Z" fill="#636363"/>
</svg>
