<svg xmlns="http://www.w3.org/2000/svg" width="24" height="24" data-name="Paste 2"><path fill="none" d="M0 0h24v24H0Z" data-name="Path 3639"/><path fill="#525863" d="M9.251 21.6a1.793 1.793 0 0 1-1.784-1.8V18H5.683a1.793 1.793 0 0 1-1.784-1.8V5.388a1.793 1.793 0 0 1 1.784-1.8h3.409a1.2 1.2 0 0 1 2.4 0h3.407a1.793 1.793 0 0 1 1.784 1.8v1.8h1.784a1.793 1.793 0 0 1 1.784 1.8v5.4a3.115 3.115 0 0 1-1.189 2.7l-3.568 3.6a3.57 3.57 0 0 1-2.973.9Zm0-1.8h2.973v-3.431a2.863 2.863 0 0 1 2.846-2.874h3.4v-4.5H9.251Zm4.757-3.431v3.247a1.329 1.329 0 0 0 .225-.189l3.568-3.6a5.174 5.174 0 0 0 .485-.528H15.07a1.068 1.068 0 0 0-1.062 1.069Zm-5.192 1.63Zm-1.349-1.8V8.994a1.793 1.793 0 0 1 1.784-1.8H14.9v-1.8h-1.227a1.192 1.192 0 0 1-1.152.9H8.062a1.192 1.192 0 0 1-1.152-.9H5.683v10.808Z" data-name="Color Fill 21"/></svg>