<svg width="11" height="12" viewBox="0 0 11 12" fill="none" xmlns="http://www.w3.org/2000/svg">
<path fill-rule="evenodd" clip-rule="evenodd" d="M5.34126 7.20691L1.99267 11.1016L1.65665 11.4924L1.47304 11.706C1.13585 12.0981 0.589312 12.098 0.252303 11.7057C-0.0222406 11.3861 -0.0730343 10.9048 0.099865 10.5253C0.139204 10.439 0.190123 10.3579 0.252621 10.2852L0.432098 10.0765L3.83939 6.11352L3.93722 5.99974L3.83939 5.88596L0.432514 1.92349L0.253036 1.71475C0.190538 1.64206 0.13962 1.56099 0.100282 1.47466C-0.0726194 1.09519 -0.0218267 0.613897 0.252718 0.294291C0.589727 -0.098033 1.13627 -0.098156 1.47345 0.294016L1.65707 0.507575L1.99309 0.898392L5.34126 4.79257L5.74677 5.26422C5.92307 5.46926 6.00723 5.74095 5.99924 6.00961C6.00274 6.27196 5.91844 6.5356 5.74636 6.73575L5.34126 7.20691ZM5.25255 1.71475L8.93673 5.99974L5.25213 10.2852C4.91495 10.6774 4.91481 11.3134 5.25181 11.7057C5.58882 12.098 6.13537 12.0981 6.47255 11.706L10.7459 6.73575C10.918 6.5356 11.0023 6.27196 10.9987 6.00961C11.0067 5.74095 10.9226 5.46926 10.7463 5.26422L6.47297 0.294016C6.13578 -0.098156 5.58924 -0.098033 5.25223 0.294291C4.91522 0.686614 4.91536 1.32257 5.25255 1.71475Z" fill="black"/>
</svg>
