<svg width="44" height="45" viewBox="0 0 44 45" fill="none" xmlns="http://www.w3.org/2000/svg">
<path d="M21.9997 41.4585C16.9716 41.4585 12.1495 39.4611 8.59411 35.9057C5.03873 32.3503 3.04134 27.5282 3.04134 22.5002C3.04134 17.4721 5.03873 12.65 8.59411 9.0946C12.1495 5.53922 16.9716 3.54183 21.9997 3.54183C27.0277 3.54183 31.8499 5.53922 35.4052 9.0946C38.9606 12.65 40.958 17.4721 40.958 22.5002C40.958 27.5282 38.9606 32.3503 35.4052 35.9057C31.8499 39.4611 27.0277 41.4585 21.9997 41.4585ZM21.9997 44.1668C27.746 44.1668 33.257 41.8841 37.3203 37.8208C41.3836 33.7575 43.6663 28.2465 43.6663 22.5002C43.6663 16.7538 41.3836 11.2428 37.3203 7.17952C33.257 3.11623 27.746 0.833496 21.9997 0.833496C16.2533 0.833496 10.7423 3.11623 6.67903 7.17952C2.61574 11.2428 0.333008 16.7538 0.333008 22.5002C0.333008 28.2465 2.61574 33.7575 6.67903 37.8208C10.7423 41.8841 16.2533 44.1668 21.9997 44.1668V44.1668Z" fill="black"/>
<path d="M30.125 22.5C30.125 24.6549 29.269 26.7215 27.7452 28.2452C26.2215 29.769 24.1549 30.625 22 30.625C19.8451 30.625 17.7785 29.769 16.2548 28.2452C14.731 26.7215 13.875 24.6549 13.875 22.5C13.875 20.3451 14.731 18.2785 16.2548 16.7548C17.7785 15.231 19.8451 14.375 22 14.375C24.1549 14.375 26.2215 15.231 27.7452 16.7548C29.269 18.2785 30.125 20.3451 30.125 22.5Z" fill="black"/>
</svg>
