<svg width="20" height="21" viewBox="0 0 20 21" fill="none" xmlns="http://www.w3.org/2000/svg">
<path d="M9.99976 4.49664C10.265 4.49664 10.5193 4.602 10.7069 4.78954C10.8944 4.97707 10.9998 5.23143 10.9998 5.49664V11.4966C10.9998 11.7619 10.8944 12.0162 10.7069 12.2037C10.5193 12.3913 10.265 12.4966 9.99976 12.4966C9.73454 12.4966 9.48019 12.3913 9.29265 12.2037C9.10511 12.0162 8.99976 11.7619 8.99976 11.4966V5.49664C8.99976 5.23143 9.10511 4.97707 9.29265 4.78954C9.48019 4.602 9.73454 4.49664 9.99976 4.49664ZM9.99976 14.4966C9.73454 14.4966 9.48019 14.602 9.29265 14.7895C9.10511 14.9771 8.99976 15.2314 8.99976 15.4966C8.99976 15.7619 9.10511 16.0162 9.29265 16.2038C9.48019 16.3913 9.73454 16.4966 9.99976 16.4966C10.265 16.4966 10.5193 16.3913 10.7069 16.2038C10.8944 16.0162 10.9998 15.7619 10.9998 15.4966C10.9998 15.2314 10.8944 14.9771 10.7069 14.7895C10.5193 14.602 10.265 14.4966 9.99976 14.4966Z" fill="#F40000"/>
<path fill-rule="evenodd" clip-rule="evenodd" d="M10 0.5C4.477 0.5 0 4.977 0 10.5C0 16.023 4.477 20.5 10 20.5C15.523 20.5 20 16.023 20 10.5C20 4.977 15.523 0.5 10 0.5ZM2 10.5C2 12.6217 2.84285 14.6566 4.34315 16.1569C5.84344 17.6571 7.87827 18.5 10 18.5C12.1217 18.5 14.1566 17.6571 15.6569 16.1569C17.1571 14.6566 18 12.6217 18 10.5C18 8.37827 17.1571 6.34344 15.6569 4.84315C14.1566 3.34285 12.1217 2.5 10 2.5C7.87827 2.5 5.84344 3.34285 4.34315 4.84315C2.84285 6.34344 2 8.37827 2 10.5Z" fill="#F40000"/>
</svg>
