<svg width="131" height="29" viewBox="0 0 131 29" fill="none" xmlns="http://www.w3.org/2000/svg">
<g clip-path="url(#clip0_155_347)">
<path d="M42.9427 28.879H39.0598V22.9497H42.8554V23.3816H39.5981V25.6847H42.6255V26.1324H39.5981V28.4356H42.9441L42.9427 28.879Z" fill="#5fa425"/>
<path d="M52.764 26.249L50.9397 28.879H50.3069L52.4513 25.8978L50.4625 22.9497H51.0707L52.7902 25.5278L54.6043 22.9497H55.2386L53.1001 25.8805L55.2823 28.879H54.6393L52.764 26.249Z" fill="#5fa425"/>
<path d="M67.7935 24.7984L67.8022 24.8833H67.264L67.2465 24.7984C67.0632 23.8958 66.4638 23.2595 65.396 23.2595C64.1638 23.2595 63.2342 24.2988 63.2342 25.9154C63.2342 27.5651 64.1202 28.5698 65.3349 28.5698C66.4478 28.5698 67.037 27.9091 67.2261 26.9979L67.2436 26.9115H67.7819L67.7731 26.9979C67.616 28.089 66.8348 29.0002 65.3073 29.0002C63.6648 29.0002 62.6406 27.745 62.6406 25.9413C62.6406 24.1376 63.787 22.8306 65.428 22.8306C66.8668 22.8306 67.6393 23.6727 67.7935 24.7984Z" fill="#5fa425"/>
<path d="M80.5359 28.879H79.9977V26.1986H76.4887V28.879H75.9504V22.9497H76.4887V25.7423H79.9977V22.9497H80.5359V28.879Z" fill="#5fa425"/>
<path d="M89.6897 26.7053L88.9157 28.879H88.3425L90.5567 22.9497H91.2841L93.446 28.879H92.864L92.0828 26.7053H89.6897ZM91.9213 26.2577L90.903 23.3787L89.8439 26.2577H91.9213Z" fill="#5fa425"/>
<path d="M104.904 28.879L101.786 23.4636C101.804 24.1949 101.812 25.0802 101.812 25.8186V28.8775H101.274V22.9497H102.09L105.217 28.3579C105.199 27.6194 105.19 26.7428 105.19 26.0029V22.9497H105.72L105.729 28.879H104.904Z" fill="#5fa425"/>
<path d="M118.842 26.104V28.8793H118.355V27.6586L118.121 28.1912C117.722 28.7426 117.088 29.0002 116.366 29.0002C114.717 29.0002 113.692 27.745 113.692 25.9413C113.692 24.1376 114.847 22.8306 116.506 22.8306C117.948 22.8306 118.72 23.6727 118.885 24.7984L118.893 24.8833H118.355L118.338 24.7984C118.156 23.8958 117.556 23.2595 116.489 23.2595C115.229 23.2595 114.292 24.2988 114.292 25.9154C114.292 27.5651 115.178 28.5698 116.401 28.5698C117.357 28.5698 118.303 27.8832 118.303 26.5416H116.675V26.1097L118.842 26.104Z" fill="#5fa425"/>
<path d="M131 28.879H127.117V22.9497H130.913V23.3816H127.655V25.6847H130.687V26.1324H127.655V28.4356H131.001L131 28.879Z" fill="#5fa425"/>
<path d="M42.2821 13.3441L51.1039 20.471H55.6851L49.8848 16.3339H55.5498V14.7318C55.5456 10.8259 53.9756 7.08129 51.1844 4.31946C48.3932 1.55763 44.6088 0.00419141 40.6614 0L39.0422 0V20.4278H42.2821V13.3441ZM42.2821 3.31659C44.7857 3.66913 47.106 4.81631 48.8941 6.58565C50.6823 8.355 51.8417 10.6509 52.198 13.1282H42.2821V3.31659Z" fill="#5fa425"/>
<path d="M100.653 20.4093H96.0979V0.0117188H107.687V3.21747H99.3377V17.2036H100.647C102.676 17.201 104.641 16.4988 106.204 15.2178C107.767 13.9368 108.83 12.1571 109.21 10.1846H103.031V6.97886H112.601V8.58245C112.598 11.7173 111.338 14.7229 109.098 16.94C106.858 19.1571 103.821 20.4047 100.653 20.4093Z" fill="#5fa425"/>
<path d="M114.466 5.67612V0.0117188H130.974V20.4093H129.355C125.407 20.4044 121.623 18.8505 118.832 16.0885C116.041 13.3265 114.471 9.58195 114.466 5.67612ZM117.706 3.21747V5.67612C117.71 8.45406 118.725 11.1376 120.567 13.2346C122.408 15.3316 124.952 16.7014 127.731 17.0927V3.21747H117.706Z" fill="#5fa425"/>
<path d="M89.6518 0V10.0707L79.6239 0H76.384V20.4278H79.6239V4.68267L89.6518 14.6036V20.4278H92.8916V0H89.6518Z" fill="#5fa425"/>
<path d="M59.3323 0H57.7131V20.4278H60.9559V3.31083C63.4601 3.66396 65.7807 4.81211 67.5686 6.58256C69.3566 8.35302 70.5153 10.6501 70.8703 13.1282H62.8689V16.3339H70.9823V20.4278H74.2236V14.7318C74.219 10.8256 72.6485 7.0807 69.8568 4.31887C67.065 1.55703 63.2801 0.00380974 59.3323 0V0Z" fill="#5fa425"/>
<path d="M33.6843 18.0455C33.6843 13.2595 31.7629 8.66958 28.3428 5.2854C24.9226 1.90121 20.2839 0 15.447 0H13.5427V7.41338L6.06795 0.0172739H0.685209L9.82569 9.0688H0V10.9545C0.00038578 15.7404 1.92194 20.3301 5.34201 23.7142C8.76209 27.0983 13.4006 28.9996 18.2373 29H20.1431V21.5924L27.5233 28.8964H32.906L23.8587 19.9312H33.6843V18.0455ZM17.3703 16.1597H12.4865C11.9811 16.1597 11.4963 16.3584 11.1389 16.7121C10.7815 17.0657 10.5807 17.5453 10.5807 18.0455C10.5807 18.5456 10.7815 19.0252 11.1389 19.3789C11.4963 19.7325 11.9811 19.9312 12.4865 19.9312H16.3315V25.1047C13.1929 24.6859 10.2801 23.2589 8.04078 21.0428C5.80146 18.8268 4.35956 15.9445 3.93668 12.8388H21.1978C21.4524 12.8458 21.7059 12.8022 21.9432 12.7106C22.1804 12.619 22.3968 12.4812 22.5793 12.3055C22.7619 12.1298 22.907 11.9196 23.0061 11.6875C23.1052 11.4553 23.1563 11.2058 23.1563 10.9538C23.1563 10.7018 23.1052 10.4523 23.0061 10.2202C22.907 9.98799 22.7619 9.77783 22.5793 9.6021C22.3968 9.42637 22.1804 9.28864 21.9432 9.19704C21.7059 9.10544 21.4524 9.06184 21.1978 9.0688H17.3528V3.89526C20.4914 4.31393 23.4042 5.74074 25.6438 7.95645C27.8833 10.1722 29.3256 13.0542 29.7491 16.1597H17.3703ZM19.4943 10.8898C19.4931 10.5938 19.5807 10.3041 19.7461 10.0574C19.9114 9.81073 20.147 9.61814 20.423 9.50401C20.699 9.38988 21.003 9.35936 21.2966 9.4163C21.5901 9.47324 21.86 9.61509 22.072 9.82388C22.2841 10.0327 22.4287 10.299 22.4877 10.5892C22.5466 10.8794 22.5172 11.1804 22.4032 11.454C22.2892 11.7277 22.0957 11.9617 21.8472 12.1265C21.5987 12.2912 21.3064 12.3793 21.0072 12.3796C20.6071 12.38 20.2232 12.2234 19.9395 11.9441C19.6559 11.6648 19.4958 11.2857 19.4943 10.8898Z" fill="#5fa425"/>
<path d="M21.6984 11.5748C21.6987 11.4392 21.6583 11.3065 21.5823 11.1936C21.5064 11.0807 21.3982 10.9927 21.2716 10.9406C21.145 10.8886 21.0057 10.8749 20.8712 10.9013C20.7368 10.9277 20.6132 10.993 20.5163 11.0889C20.4194 11.1848 20.3534 11.307 20.3267 11.4401C20.3 11.5731 20.3139 11.711 20.3665 11.8363C20.4191 11.9615 20.508 12.0685 20.6221 12.1437C20.7362 12.2189 20.8703 12.2589 21.0074 12.2586C21.1906 12.2582 21.3661 12.186 21.4956 12.0579C21.6251 11.9297 21.6981 11.756 21.6984 11.5748Z" fill="#5fa425"/>
</g>
<defs>
<clipPath id="clip0_155_347">
<rect width="131" height="29" fill="#5fa425"/>
</clipPath>
</defs>
</svg>
