<svg width="22" height="22" viewBox="0 0 22 22" fill="none" xmlns="http://www.w3.org/2000/svg">
<path d="M4.33333 20.9999H17.6667C16.5556 20.9999 14.3333 20.3332 14.3333 17.6666V15.4443H1V17.6666C1 20.3332 3.22222 20.9999 4.33333 20.9999Z" fill="black"/>
<path d="M3.22222 12.1111V3.22222C3.22222 2.63285 3.45635 2.06762 3.8731 1.65087C4.28984 1.23413 4.85507 1 5.44444 1H18.7778C19.3671 1 19.9324 1.23413 20.3491 1.65087C20.7659 2.06762 21 2.63285 21 3.22222V17.6667C21 18.7778 20.3333 21 17.6667 21M7.66667 5.44444H16.5556M7.66667 9.88889H12.1111M17.6667 21H4.33333C3.22222 21 1 20.3333 1 17.6667V15.4444H14.3333V17.6667C14.3333 20.3333 16.5556 21 17.6667 21Z" stroke="black" stroke-width="2" stroke-linecap="round" stroke-linejoin="round"/>
</svg>
