<svg width="20" height="20" viewBox="0 0 20 20" fill="none" xmlns="http://www.w3.org/2000/svg">
<path fill-rule="evenodd" clip-rule="evenodd" d="M7.66869 15.3374C11.904 15.3374 15.3374 11.904 15.3374 7.66869C15.3374 3.43339 11.904 0 7.66869 0C3.43339 0 0 3.43339 0 7.66869C0 11.904 3.43339 15.3374 7.66869 15.3374ZM7.66869 13.7018C4.33669 13.7018 1.63557 11.0007 1.63557 7.66869C1.63557 4.33669 4.33669 1.63557 7.66869 1.63557C11.0007 1.63557 13.7018 4.33669 13.7018 7.66869C13.7018 11.0007 11.0007 13.7018 7.66869 13.7018ZM14.9745 13.1395C14.6001 12.7651 13.9932 12.7651 13.6188 13.1395C13.2445 13.5138 13.2445 14.1208 13.6188 14.4951L18.3636 19.2399C18.738 19.6142 19.3449 19.6142 19.7193 19.2399C20.0936 18.8655 20.0936 18.2586 19.7193 17.8842L14.9745 13.1395Z" fill="black"/>
</svg>
