<svg width="549" height="664" viewBox="0 0 549 664" fill="none" xmlns="http://www.w3.org/2000/svg">
<g opacity="0.3">
<path d="M564.028 442.752C518.939 418.604 366.95 340.891 327.8 317.132C286.696 292.204 293.573 218.821 293.573 218.821C227.19 296.144 255.869 361.294 299.59 384.39C307.756 388.681 317.954 395.547 326.12 399.878C342.413 408.577 376.835 427.537 414.031 447.902L198.16 538.372L0.779297 629.25C11.524 648.366 112.553 622.99 125.994 640.233L198.824 609.452L449.391 503.182L485.963 487.695L486.666 487.382L556.8 526.941L179.718 683.927L169.715 688.92C187.102 705.735 205.896 721.106 225.822 734.916H225.861L283.688 709.558L546.055 602.04L551.056 600.401C551.056 600.401 551.603 600.245 552.58 599.933L554.729 599.192C565.161 595.447 595.012 582.378 607.671 551.831L608.14 550.661C608.648 549.412 609.117 548.125 609.586 546.837C609.859 545.979 610.133 545.121 610.406 544.302C610.836 542.975 611.266 541.688 611.617 540.322C618.963 513.248 612.321 487.617 594.738 466.862C586.26 456.875 575.593 448.955 564.028 442.752Z" fill="#161C38"/>
<path d="M540.311 290.057L553.048 284.907L557.229 283.269L559.768 282.255C614.391 260.798 766.341 201.226 811.117 184.88L879.766 158.312C868.279 136.387 855.034 115.477 840.187 95.8534L503.114 235.479L467.832 250.069L467.676 250.147C439.115 234.386 420.243 223.931 420.243 223.931C412.819 220.03 407.076 215.777 402.7 211.291L791.308 48.1413C791.308 48.1413 793.457 47.283 796.075 45.8005C779.039 29.0642 760.597 13.8104 741.022 0L682.805 24.1487C680.227 25.4361 678.469 26.1383 678.469 26.1383L412.702 135.022L399.808 140.328L398.167 140.991C398.167 140.991 382.421 148.286 367.809 161.823C342.724 182.851 337.45 206.844 339.989 227.715C343.389 255.648 361.401 279.641 386.25 292.866C438.997 320.955 564.457 387.666 619.157 416.067C673.467 444.468 665.379 521.4 665.379 521.4C665.379 521.4 665.966 520.503 666.864 518.943L667.333 518.123C678.703 498.617 733.13 395.703 647.133 348.81C613.492 330.474 575.319 309.524 539.998 290.057C539.998 290.057 540.037 290.018 540.154 289.979L540.311 290.057Z" fill="#161C38"/>
</g>
</svg>
